# MagicaVoxel @ Ephtracy

# group
o 

# material
mtllib Character Body.mtl
usemtl palette

# normals
vn -1 0 0
vn 1 0 0
vn 0 0 1
vn 0 0 -1
vn 0 -1 0
vn 0 1 0

# texcoords
vt 0.0488281 0.5
vt 0.236328 0.5
vt 0.318359 0.5
vt 0.333984 0.5

# verts
v -0.5 0.8 0.4
v -0.5 0.8 -0.4
v -0.5 1 0.5
v -0.5 1 0.4
v -0.5 1 -0.4
v -0.5 1 -0.5
v -0.5 1.1 0.5
v -0.5 1.1 0.4
v -0.5 1.1 -0.4
v -0.5 1.1 -0.5
v -0.5 1.5 0.4
v -0.5 1.5 -0.4
v -0.4 1.1 0.5
v -0.4 1.1 0.4
v -0.4 1.1 -0.4
v -0.4 1.1 -0.5
v -0.4 1.2 0.5
v -0.4 1.2 0.4
v -0.4 1.2 -0.4
v -0.4 1.2 -0.5
v -0.2 1.2 -0.4
v -0.2 1.2 -0.5
v -0.2 1.3 -0.4
v -0.2 1.3 -0.5
v -0.1 1.2 0.5
v -0.1 1.2 0.4
v -0.1 1.3 0.5
v -0.1 1.3 0.4
v 0 1.3 -0.4
v 0 1.3 -0.5
v 0 1.4 -0.4
v 0 1.4 -0.5
v 0.1 1.3 0.5
v 0.1 1.3 0.4
v 0.1 1.4 0.5
v 0.1 1.4 0.4
v 0.1 1.4 -0.4
v 0.1 1.4 -0.5
v 0.1 1.5 -0.4
v 0.1 1.5 -0.5
v -0.4 1 0.5
v -0.4 1 0.4
v -0.4 1 -0.4
v -0.4 1 -0.5
v -0.4 1.1 0.5
v -0.4 1.1 0.4
v -0.4 1.1 -0.4
v -0.4 1.1 -0.5
v -0.2 1.1 -0.4
v -0.2 1.1 -0.5
v -0.2 1.2 -0.4
v -0.2 1.2 -0.5
v -0.1 1.1 0.5
v -0.1 1.1 0.4
v -0.1 1.2 0.5
v -0.1 1.2 0.4
v 0 1.2 -0.4
v 0 1.2 -0.5
v 0 1.3 -0.4
v 0 1.3 -0.5
v 0.1 1.2 0.5
v 0.1 1.2 0.4
v 0.1 1.3 0.5
v 0.1 1.3 0.4
v 0.1 1.3 -0.4
v 0.1 1.3 -0.5
v 0.1 1.4 -0.4
v 0.1 1.4 -0.5
v 0.3 0.8 0.4
v 0.3 0.8 -0.4
v 0.3 1.3 0.5
v 0.3 1.3 0.4
v 0.3 1.4 0.5
v 0.3 1.4 0.4
v 0.3 1.4 -0.4
v 0.3 1.4 -0.5
v 0.3 1.5 -0.4
v 0.3 1.5 -0.5
v 0.4 1.4 0.4
v 0.4 1.4 -0.4
v 0.4 1.5 0.4
v 0.4 1.5 -0.4
v -0.5 1 0.5
v -0.5 1.1 0.5
v -0.4 1 0.5
v -0.4 1.1 0.5
v -0.4 1.2 0.5
v -0.1 1.1 0.5
v -0.1 1.2 0.5
v -0.1 1.3 0.5
v 0.1 1.2 0.5
v 0.1 1.3 0.5
v 0.1 1.4 0.5
v 0.3 1.3 0.5
v 0.3 1.4 0.5
v -0.5 0.8 0.4
v -0.5 1 0.4
v -0.5 1.1 0.4
v -0.5 1.5 0.4
v -0.4 0.8 0.4
v -0.4 1 0.4
v -0.4 1.1 0.4
v -0.4 1.2 0.4
v -0.4 1.5 0.4
v -0.2 1.4 0.4
v -0.2 1.5 0.4
v -0.1 1.1 0.4
v -0.1 1.2 0.4
v -0.1 1.3 0.4
v 0 1.4 0.4
v 0 1.5 0.4
v 0.1 1.2 0.4
v 0.1 1.3 0.4
v 0.1 1.4 0.4
v 0.2 0.8 0.4
v 0.2 1.3 0.4
v 0.2 1.4 0.4
v 0.2 1.5 0.4
v 0.3 0.8 0.4
v 0.3 1.3 0.4
v 0.3 1.4 0.4
v 0.3 1.5 0.4
v 0.4 1.4 0.4
v 0.4 1.5 0.4
v -0.5 0.8 -0.4
v -0.5 1 -0.4
v -0.5 1.1 -0.4
v -0.5 1.5 -0.4
v -0.4 1 -0.4
v -0.4 1.1 -0.4
v -0.4 1.2 -0.4
v -0.2 1.1 -0.4
v -0.2 1.2 -0.4
v -0.2 1.3 -0.4
v 0 1.2 -0.4
v 0 1.3 -0.4
v 0 1.4 -0.4
v 0.1 1.3 -0.4
v 0.1 1.4 -0.4
v 0.1 1.5 -0.4
v 0.3 0.8 -0.4
v 0.3 1.4 -0.4
v 0.3 1.5 -0.4
v 0.4 1.4 -0.4
v 0.4 1.5 -0.4
v -0.5 1 -0.5
v -0.5 1.1 -0.5
v -0.4 1 -0.5
v -0.4 1.1 -0.5
v -0.4 1.2 -0.5
v -0.2 1.1 -0.5
v -0.2 1.2 -0.5
v -0.2 1.3 -0.5
v 0 1.2 -0.5
v 0 1.3 -0.5
v 0 1.4 -0.5
v 0.1 1.3 -0.5
v 0.1 1.4 -0.5
v 0.1 1.5 -0.5
v 0.3 1.4 -0.5
v 0.3 1.5 -0.5
v -0.5 0.8 0.4
v -0.4 0.8 0.4
v 0.2 0.8 0.4
v 0.3 0.8 0.4
v -0.4 0.8 0
v 0.2 0.8 0
v -0.5 0.8 -0.4
v 0.3 0.8 -0.4
v -0.5 1 0.5
v -0.4 1 0.5
v -0.5 1 0.4
v -0.4 1 0.4
v -0.5 1 -0.4
v -0.4 1 -0.4
v -0.5 1 -0.5
v -0.4 1 -0.5
v -0.4 1.1 0.5
v -0.1 1.1 0.5
v -0.4 1.1 0.4
v -0.1 1.1 0.4
v -0.4 1.1 -0.4
v -0.2 1.1 -0.4
v -0.4 1.1 -0.5
v -0.2 1.1 -0.5
v -0.1 1.2 0.5
v 0.1 1.2 0.5
v -0.1 1.2 0.4
v 0.1 1.2 0.4
v -0.2 1.2 -0.4
v 0 1.2 -0.4
v -0.2 1.2 -0.5
v 0 1.2 -0.5
v 0.1 1.3 0.5
v 0.3 1.3 0.5
v 0.1 1.3 0.4
v 0.2 1.3 0.4
v 0.3 1.3 0.4
v 0 1.3 -0.4
v 0.1 1.3 -0.4
v 0 1.3 -0.5
v 0.1 1.3 -0.5
v 0.3 1.4 0.4
v 0.4 1.4 0.4
v 0.1 1.4 -0.4
v 0.3 1.4 -0.4
v 0.4 1.4 -0.4
v 0.1 1.4 -0.5
v 0.3 1.4 -0.5
v -0.5 1.1 0.5
v -0.4 1.1 0.5
v -0.5 1.1 0.4
v -0.4 1.1 0.4
v -0.5 1.1 -0.4
v -0.4 1.1 -0.4
v -0.5 1.1 -0.5
v -0.4 1.1 -0.5
v -0.4 1.2 0.5
v -0.1 1.2 0.5
v -0.4 1.2 0.4
v -0.1 1.2 0.4
v -0.4 1.2 -0.4
v -0.2 1.2 -0.4
v -0.4 1.2 -0.5
v -0.2 1.2 -0.5
v -0.1 1.3 0.5
v 0.1 1.3 0.5
v -0.1 1.3 0.4
v 0.1 1.3 0.4
v -0.2 1.3 -0.4
v 0 1.3 -0.4
v -0.2 1.3 -0.5
v 0 1.3 -0.5
v 0.1 1.4 0.5
v 0.3 1.4 0.5
v 0.1 1.4 0.4
v 0.2 1.4 0.4
v 0.3 1.4 0.4
v 0 1.4 -0.4
v 0.1 1.4 -0.4
v 0 1.4 -0.5
v 0.1 1.4 -0.5
v -0.5 1.5 0.4
v -0.4 1.5 0.4
v -0.2 1.5 0.4
v 0 1.5 0.4
v 0.2 1.5 0.4
v 0.3 1.5 0.4
v 0.4 1.5 0.4
v -0.4 1.5 0.3
v -0.2 1.5 0.3
v 0 1.5 0.3
v 0.2 1.5 0.3
v 0.3 1.5 0.3
v -0.4 1.5 -0.3
v 0.1 1.5 -0.3
v -0.5 1.5 -0.4
v 0.1 1.5 -0.4
v 0.3 1.5 -0.4
v 0.4 1.5 -0.4
v 0.1 1.5 -0.5
v 0.3 1.5 -0.5

# faces
f 4/3/1 2/3/1 1/3/1
f 5/3/1 2/3/1 4/3/1
f 7/4/1 4/4/1 3/4/1
f 8/3/1 5/3/1 4/3/1
f 8/4/1 4/4/1 7/4/1
f 9/4/1 6/4/1 5/4/1
f 9/3/1 5/3/1 8/3/1
f 10/4/1 6/4/1 9/4/1
f 11/3/1 9/3/1 8/3/1
f 12/3/1 9/3/1 11/3/1
f 17/4/1 14/4/1 13/4/1
f 18/4/1 14/4/1 17/4/1
f 19/4/1 16/4/1 15/4/1
f 20/4/1 16/4/1 19/4/1
f 23/4/1 22/4/1 21/4/1
f 24/4/1 22/4/1 23/4/1
f 27/4/1 26/4/1 25/4/1
f 28/4/1 26/4/1 27/4/1
f 31/4/1 30/4/1 29/4/1
f 32/4/1 30/4/1 31/4/1
f 35/4/1 34/4/1 33/4/1
f 36/4/1 34/4/1 35/4/1
f 39/4/1 38/4/1 37/4/1
f 40/4/1 38/4/1 39/4/1
f 41/4/2 42/4/2 45/4/2
f 45/4/2 42/4/2 46/4/2
f 43/4/2 44/4/2 47/4/2
f 47/4/2 44/4/2 48/4/2
f 49/4/2 50/4/2 51/4/2
f 51/4/2 50/4/2 52/4/2
f 53/4/2 54/4/2 55/4/2
f 55/4/2 54/4/2 56/4/2
f 57/4/2 58/4/2 59/4/2
f 59/4/2 58/4/2 60/4/2
f 61/4/2 62/4/2 63/4/2
f 63/4/2 62/4/2 64/4/2
f 65/4/2 66/4/2 67/4/2
f 67/4/2 66/4/2 68/4/2
f 69/3/2 70/3/2 72/3/2
f 71/4/2 72/4/2 73/4/2
f 72/3/2 70/3/2 74/3/2
f 73/4/2 72/4/2 74/4/2
f 74/3/2 70/3/2 75/3/2
f 75/4/2 76/4/2 77/4/2
f 77/4/2 76/4/2 78/4/2
f 79/4/2 80/4/2 81/4/2
f 81/4/2 80/4/2 82/4/2
f 85/4/3 84/4/3 83/4/3
f 86/4/3 84/4/3 85/4/3
f 88/4/3 87/4/3 86/4/3
f 89/4/3 87/4/3 88/4/3
f 91/4/3 90/4/3 89/4/3
f 92/4/3 90/4/3 91/4/3
f 94/4/3 93/4/3 92/4/3
f 95/4/3 93/4/3 94/4/3
f 100/3/3 97/3/3 96/3/3
f 101/3/3 97/3/3 100/3/3
f 102/3/3 99/3/3 98/3/3
f 103/3/3 99/3/3 102/3/3
f 104/3/3 99/3/3 103/3/3
f 105/1/3 104/1/3 103/1/3
f 106/1/3 104/1/3 105/1/3
f 107/1/3 101/1/3 100/1/3
f 107/1/3 102/1/3 101/1/3
f 108/1/3 105/1/3 103/1/3
f 109/1/3 105/1/3 108/1/3
f 110/2/3 106/2/3 105/2/3
f 110/1/3 105/1/3 109/1/3
f 111/2/3 106/2/3 110/2/3
f 112/1/3 108/1/3 107/1/3
f 113/1/3 110/1/3 109/1/3
f 113/1/3 111/1/3 110/1/3
f 114/1/3 111/1/3 113/1/3
f 115/1/3 107/1/3 100/1/3
f 115/1/3 112/1/3 107/1/3
f 115/1/3 113/1/3 112/1/3
f 116/1/3 113/1/3 115/1/3
f 117/1/3 111/1/3 114/1/3
f 118/1/3 111/1/3 117/1/3
f 119/3/3 116/3/3 115/3/3
f 120/3/3 116/3/3 119/3/3
f 121/3/3 118/3/3 117/3/3
f 122/3/3 118/3/3 121/3/3
f 123/4/3 122/4/3 121/4/3
f 124/4/3 122/4/3 123/4/3
f 125/3/4 126/3/4 129/3/4
f 127/3/4 128/3/4 130/3/4
f 130/3/4 128/3/4 131/3/4
f 129/3/4 130/3/4 132/3/4
f 131/3/4 128/3/4 133/3/4
f 133/3/4 128/3/4 134/3/4
f 132/3/4 133/3/4 135/3/4
f 134/3/4 128/3/4 136/3/4
f 136/3/4 128/3/4 137/3/4
f 135/3/4 136/3/4 138/3/4
f 137/3/4 128/3/4 139/3/4
f 139/3/4 128/3/4 140/3/4
f 125/3/4 129/3/4 141/3/4
f 129/3/4 132/3/4 141/3/4
f 138/3/4 139/3/4 141/3/4
f 132/3/4 135/3/4 141/3/4
f 135/3/4 138/3/4 141/3/4
f 141/3/4 139/3/4 142/3/4
f 142/4/4 143/4/4 144/4/4
f 144/4/4 143/4/4 145/4/4
f 146/4/4 147/4/4 148/4/4
f 148/4/4 147/4/4 149/4/4
f 149/4/4 150/4/4 151/4/4
f 151/4/4 150/4/4 152/4/4
f 152/4/4 153/4/4 154/4/4
f 154/4/4 153/4/4 155/4/4
f 155/4/4 156/4/4 157/4/4
f 157/4/4 156/4/4 158/4/4
f 158/4/4 159/4/4 160/4/4
f 160/4/4 159/4/4 161/4/4
f 166/3/5 163/3/5 162/3/5
f 166/1/5 164/1/5 163/1/5
f 167/3/5 165/3/5 164/3/5
f 167/1/5 164/1/5 166/1/5
f 168/3/5 166/3/5 162/3/5
f 168/3/5 167/3/5 166/3/5
f 169/3/5 165/3/5 167/3/5
f 169/3/5 167/3/5 168/3/5
f 172/4/5 171/4/5 170/4/5
f 173/4/5 171/4/5 172/4/5
f 176/4/5 175/4/5 174/4/5
f 177/4/5 175/4/5 176/4/5
f 180/4/5 179/4/5 178/4/5
f 181/4/5 179/4/5 180/4/5
f 184/4/5 183/4/5 182/4/5
f 185/4/5 183/4/5 184/4/5
f 188/4/5 187/4/5 186/4/5
f 189/4/5 187/4/5 188/4/5
f 192/4/5 191/4/5 190/4/5
f 193/4/5 191/4/5 192/4/5
f 196/4/5 195/4/5 194/4/5
f 197/4/5 195/4/5 196/4/5
f 198/4/5 195/4/5 197/4/5
f 201/4/5 200/4/5 199/4/5
f 202/4/5 200/4/5 201/4/5
f 206/4/5 204/4/5 203/4/5
f 207/4/5 204/4/5 206/4/5
f 208/4/5 206/4/5 205/4/5
f 209/4/5 206/4/5 208/4/5
f 210/4/6 211/4/6 212/4/6
f 212/4/6 211/4/6 213/4/6
f 214/4/6 215/4/6 216/4/6
f 216/4/6 215/4/6 217/4/6
f 218/4/6 219/4/6 220/4/6
f 220/4/6 219/4/6 221/4/6
f 222/4/6 223/4/6 224/4/6
f 224/4/6 223/4/6 225/4/6
f 226/4/6 227/4/6 228/4/6
f 228/4/6 227/4/6 229/4/6
f 230/4/6 231/4/6 232/4/6
f 232/4/6 231/4/6 233/4/6
f 234/4/6 235/4/6 236/4/6
f 236/4/6 235/4/6 237/4/6
f 237/4/6 235/4/6 238/4/6
f 239/4/6 240/4/6 241/4/6
f 241/4/6 240/4/6 242/4/6
f 243/3/6 244/3/6 250/3/6
f 244/1/6 245/1/6 250/1/6
f 245/2/6 246/2/6 251/2/6
f 250/1/6 245/1/6 251/1/6
f 246/1/6 247/1/6 252/1/6
f 251/2/6 246/2/6 252/2/6
f 247/3/6 248/3/6 253/3/6
f 252/1/6 247/1/6 253/1/6
f 248/4/6 249/4/6 254/4/6
f 253/3/6 248/3/6 254/3/6
f 252/4/6 253/4/6 255/4/6
f 251/4/6 252/4/6 255/4/6
f 253/4/6 254/4/6 255/4/6
f 250/4/6 251/4/6 255/4/6
f 243/3/6 250/3/6 255/3/6
f 255/4/6 254/4/6 256/4/6
f 243/3/6 255/3/6 257/3/6
f 255/3/6 256/3/6 257/3/6
f 256/4/6 254/4/6 258/4/6
f 257/3/6 256/3/6 258/3/6
f 254/4/6 249/4/6 259/4/6
f 258/4/6 254/4/6 259/4/6
f 259/4/6 249/4/6 260/4/6
f 258/4/6 259/4/6 261/4/6
f 261/4/6 259/4/6 262/4/6
