# MagicaVoxel @ Ephtracy

# group
o 

# material
mtllib Esqueleto-Cabeça.mtl
usemtl palette

# normals
vn -1 0 0
vn 1 0 0
vn 0 0 1
vn 0 0 -1
vn 0 -1 0
vn 0 1 0

# texcoords
vt 0.912109 0.5
vt 0.958984 0.5
vt 0.962891 0.5
vt 0.966797 0.5
vt 0.986328 0.5

# verts
v -0.5 -0.35 0.55
v -0.5 -0.35 0.15
v -0.5 -0.35 -0.05
v -0.5 -0.35 -0.45
v -0.5 -0.25 0.55
v -0.5 -0.25 0.45
v -0.5 -0.25 0.25
v -0.5 -0.25 -0.05
v -0.5 -0.25 -0.25
v -0.5 -0.15 0.55
v -0.5 -0.15 0.45
v -0.5 -0.15 0.25
v -0.5 -0.15 0.15
v -0.5 -0.15 0.05
v -0.5 -0.05 0.15
v -0.5 -0.05 0.05
v -0.5 0.25 -0.15
v -0.5 0.25 -0.25
v -0.5 0.35 0.45
v -0.5 0.35 -0.15
v -0.5 0.35 -0.45
v -0.4 -0.35 -0.45
v -0.4 -0.35 -0.55
v -0.4 -0.25 -0.45
v -0.4 -0.25 -0.55
v -0.4 -0.15 0.55
v -0.4 -0.15 0.45
v -0.4 -0.05 0.55
v -0.4 -0.05 0.45
v -0.4 0.15 -0.45
v -0.4 0.15 -0.55
v -0.4 0.25 -0.45
v -0.4 0.25 -0.55
v -0.4 0.35 0.55
v -0.4 0.35 0.45
v -0.4 0.35 -0.15
v -0.4 0.35 -0.35
v -0.4 0.35 -0.45
v -0.4 0.35 -0.55
v -0.4 0.45 0.45
v -0.4 0.45 -0.35
v -0.4 0.45 -0.45
v -0.3 -0.45 0.45
v -0.3 -0.45 -0.05
v -0.3 -0.35 0.45
v -0.3 -0.35 -0.05
v -0.3 0.35 0.55
v -0.3 0.35 0.45
v -0.3 0.45 0.55
v -0.3 0.45 0.45
v -0.2 -0.45 0.55
v -0.2 -0.45 0.45
v -0.2 -0.45 -0.05
v -0.2 -0.45 -0.15
v -0.2 -0.35 0.55
v -0.2 -0.35 0.45
v -0.2 -0.35 -0.05
v -0.2 -0.35 -0.15
v -0.1 -0.45 -0.15
v -0.1 -0.45 -0.25
v -0.1 -0.35 -0.15
v -0.1 -0.35 -0.25
v -0.1 -0.15 0.55
v -0.1 -0.15 0.45
v -0.1 0.05 0.55
v -0.1 0.05 0.45
v 0.3 -0.15 0.55
v 0.3 -0.15 0.45
v 0.3 -0.05 0.55
v 0.3 -0.05 0.45
v 0.3 0.05 0.55
v 0.3 0.05 0.45
v -0.3 -0.15 0.55
v -0.3 -0.15 0.45
v -0.3 -0.05 0.55
v -0.3 -0.05 0.45
v -0.3 0.05 0.55
v -0.3 0.05 0.45
v 0.1 -0.45 -0.15
v 0.1 -0.45 -0.25
v 0.1 -0.35 -0.15
v 0.1 -0.35 -0.25
v 0.1 -0.15 0.55
v 0.1 -0.15 0.45
v 0.1 0.05 0.55
v 0.1 0.05 0.45
v 0.2 -0.45 0.55
v 0.2 -0.45 0.45
v 0.2 -0.45 -0.05
v 0.2 -0.45 -0.15
v 0.2 -0.35 0.55
v 0.2 -0.35 0.45
v 0.2 -0.35 -0.05
v 0.2 -0.35 -0.15
v 0.3 -0.45 0.45
v 0.3 -0.45 -0.05
v 0.3 -0.35 0.45
v 0.3 -0.35 -0.05
v 0.3 0.35 0.55
v 0.3 0.35 0.45
v 0.3 0.45 0.55
v 0.3 0.45 0.45
v 0.4 -0.35 -0.45
v 0.4 -0.35 -0.55
v 0.4 -0.25 -0.45
v 0.4 -0.25 -0.55
v 0.4 -0.15 0.55
v 0.4 -0.15 0.45
v 0.4 -0.15 -0.45
v 0.4 -0.15 -0.55
v 0.4 -0.05 0.55
v 0.4 -0.05 0.45
v 0.4 0.35 0.55
v 0.4 0.35 0.45
v 0.4 0.35 0.15
v 0.4 0.35 -0.05
v 0.4 0.35 -0.15
v 0.4 0.35 -0.35
v 0.4 0.35 -0.45
v 0.4 0.35 -0.55
v 0.4 0.45 0.45
v 0.4 0.45 -0.35
v 0.4 0.45 -0.45
v 0.5 -0.35 0.55
v 0.5 -0.35 0.15
v 0.5 -0.35 -0.05
v 0.5 -0.35 -0.45
v 0.5 -0.25 0.55
v 0.5 -0.25 0.45
v 0.5 -0.25 0.25
v 0.5 -0.25 -0.05
v 0.5 -0.25 -0.25
v 0.5 -0.15 0.55
v 0.5 -0.15 0.45
v 0.5 -0.15 0.25
v 0.5 -0.15 0.15
v 0.5 -0.15 0.05
v 0.5 -0.05 0.15
v 0.5 -0.05 0.05
v 0.5 0.15 0.05
v 0.5 0.15 -0.05
v 0.5 0.25 0.15
v 0.5 0.25 0.05
v 0.5 0.25 -0.15
v 0.5 0.25 -0.25
v 0.5 0.35 0.45
v 0.5 0.35 0.15
v 0.5 0.35 -0.05
v 0.5 0.35 -0.15
v 0.5 0.35 -0.45
v -0.5 -0.35 0.55
v -0.5 -0.25 0.55
v -0.5 -0.15 0.55
v -0.4 -0.25 0.55
v -0.4 -0.15 0.55
v -0.4 -0.05 0.55
v -0.4 0.35 0.55
v -0.3 -0.15 0.55
v -0.3 -0.05 0.55
v -0.3 0.05 0.55
v -0.3 0.25 0.55
v -0.3 0.35 0.55
v -0.3 0.45 0.55
v -0.2 -0.45 0.55
v -0.2 -0.35 0.55
v -0.2 -0.25 0.55
v -0.2 0.15 0.55
v -0.2 0.25 0.55
v -0.2 0.35 0.55
v -0.1 -0.25 0.55
v -0.1 -0.15 0.55
v -0.1 0.05 0.55
v -0.1 0.15 0.55
v -0.1 0.25 0.55
v 0.1 -0.25 0.55
v 0.1 -0.15 0.55
v 0.1 0.05 0.55
v 0.2 -0.45 0.55
v 0.2 -0.35 0.55
v 0.2 -0.25 0.55
v 0.3 -0.15 0.55
v 0.3 -0.05 0.55
v 0.3 0.05 0.55
v 0.3 0.35 0.55
v 0.3 0.45 0.55
v 0.4 -0.25 0.55
v 0.4 -0.15 0.55
v 0.4 -0.05 0.55
v 0.4 0.35 0.55
v 0.5 -0.35 0.55
v 0.5 -0.25 0.55
v 0.5 -0.15 0.55
v -0.5 -0.15 0.45
v -0.5 0.35 0.45
v -0.4 -0.15 0.45
v -0.4 -0.05 0.45
v -0.4 0.35 0.45
v -0.4 0.45 0.45
v -0.3 -0.45 0.45
v -0.3 -0.35 0.45
v -0.3 -0.15 0.45
v -0.3 -0.05 0.45
v -0.3 0.05 0.45
v -0.3 0.35 0.45
v -0.3 0.45 0.45
v -0.2 -0.45 0.45
v -0.2 -0.35 0.45
v -0.1 -0.15 0.45
v -0.1 0.05 0.45
v 0.1 -0.15 0.45
v 0.1 0.05 0.45
v 0.2 -0.45 0.45
v 0.2 -0.35 0.45
v 0.3 -0.45 0.45
v 0.3 -0.35 0.45
v 0.3 -0.15 0.45
v 0.3 -0.05 0.45
v 0.3 0.05 0.45
v 0.3 0.35 0.45
v 0.3 0.45 0.45
v 0.4 -0.15 0.45
v 0.4 -0.05 0.45
v 0.4 0.35 0.45
v 0.4 0.45 0.45
v 0.5 -0.15 0.45
v 0.5 0.35 0.45
v -0.3 -0.45 -0.05
v -0.3 -0.35 -0.05
v -0.2 -0.45 -0.05
v -0.2 -0.35 -0.05
v 0.2 -0.45 -0.05
v 0.2 -0.35 -0.05
v 0.3 -0.45 -0.05
v 0.3 -0.35 -0.05
v -0.2 -0.45 -0.15
v -0.2 -0.35 -0.15
v -0.1 -0.45 -0.15
v -0.1 -0.35 -0.15
v 0.1 -0.45 -0.15
v 0.1 -0.35 -0.15
v 0.2 -0.45 -0.15
v 0.2 -0.35 -0.15
v -0.1 -0.45 -0.25
v -0.1 -0.35 -0.25
v 0.1 -0.45 -0.25
v 0.1 -0.35 -0.25
v -0.5 -0.35 -0.45
v -0.5 0.35 -0.45
v -0.4 -0.35 -0.45
v -0.4 -0.25 -0.45
v -0.4 0.15 -0.45
v -0.4 0.25 -0.45
v -0.4 0.35 -0.45
v -0.4 0.45 -0.45
v -0.3 0.35 -0.45
v -0.3 0.45 -0.45
v 0.3 0.35 -0.45
v 0.3 0.45 -0.45
v 0.4 -0.35 -0.45
v 0.4 -0.25 -0.45
v 0.4 -0.15 -0.45
v 0.4 0.35 -0.45
v 0.4 0.45 -0.45
v 0.5 -0.35 -0.45
v 0.5 0.35 -0.45
v -0.4 -0.35 -0.55
v -0.4 -0.25 -0.55
v -0.4 0.15 -0.55
v -0.4 0.25 -0.55
v -0.4 0.35 -0.55
v -0.3 -0.35 -0.55
v -0.3 -0.25 -0.55
v -0.3 0.15 -0.55
v -0.3 0.25 -0.55
v 0.3 -0.35 -0.55
v 0.3 -0.25 -0.55
v 0.3 -0.15 -0.55
v 0.4 -0.35 -0.55
v 0.4 -0.25 -0.55
v 0.4 -0.15 -0.55
v 0.4 0.35 -0.55
v -0.2 -0.45 0.55
v 0.2 -0.45 0.55
v -0.3 -0.45 0.45
v -0.2 -0.45 0.45
v 0.2 -0.45 0.45
v 0.3 -0.45 0.45
v -0.3 -0.45 -0.05
v -0.2 -0.45 -0.05
v 0.2 -0.45 -0.05
v 0.3 -0.45 -0.05
v -0.2 -0.45 -0.15
v -0.1 -0.45 -0.15
v 0.1 -0.45 -0.15
v 0.2 -0.45 -0.15
v -0.1 -0.45 -0.25
v 0.1 -0.45 -0.25
v -0.5 -0.35 0.55
v -0.2 -0.35 0.55
v 0.2 -0.35 0.55
v 0.5 -0.35 0.55
v -0.4 -0.35 0.45
v -0.3 -0.35 0.45
v -0.2 -0.35 0.45
v 0.2 -0.35 0.45
v 0.3 -0.35 0.45
v 0.4 -0.35 0.45
v -0.5 -0.35 0.15
v -0.4 -0.35 0.15
v 0.4 -0.35 0.15
v 0.5 -0.35 0.15
v -0.5 -0.35 -0.05
v -0.4 -0.35 -0.05
v -0.3 -0.35 -0.05
v -0.2 -0.35 -0.05
v 0.2 -0.35 -0.05
v 0.3 -0.35 -0.05
v 0.4 -0.35 -0.05
v 0.5 -0.35 -0.05
v -0.2 -0.35 -0.15
v -0.1 -0.35 -0.15
v 0.1 -0.35 -0.15
v 0.2 -0.35 -0.15
v -0.1 -0.35 -0.25
v 0.1 -0.35 -0.25
v -0.4 -0.35 -0.35
v -0.3 -0.35 -0.35
v 0.3 -0.35 -0.35
v 0.4 -0.35 -0.35
v -0.5 -0.35 -0.45
v -0.4 -0.35 -0.45
v -0.3 -0.35 -0.45
v 0.3 -0.35 -0.45
v 0.4 -0.35 -0.45
v 0.5 -0.35 -0.45
v -0.4 -0.35 -0.55
v -0.3 -0.35 -0.55
v 0.3 -0.35 -0.55
v 0.4 -0.35 -0.55
v -0.3 0.05 0.55
v -0.1 0.05 0.55
v 0.1 0.05 0.55
v 0.3 0.05 0.55
v -0.3 0.05 0.45
v -0.1 0.05 0.45
v 0.1 0.05 0.45
v 0.3 0.05 0.45
v -0.5 -0.15 0.55
v -0.4 -0.15 0.55
v -0.3 -0.15 0.55
v -0.1 -0.15 0.55
v 0.1 -0.15 0.55
v 0.3 -0.15 0.55
v 0.4 -0.15 0.55
v 0.5 -0.15 0.55
v -0.5 -0.15 0.45
v -0.4 -0.15 0.45
v -0.3 -0.15 0.45
v -0.1 -0.15 0.45
v 0.1 -0.15 0.45
v 0.3 -0.15 0.45
v 0.4 -0.15 0.45
v 0.5 -0.15 0.45
v -0.4 0.35 0.55
v -0.3 0.35 0.55
v 0.3 0.35 0.55
v 0.4 0.35 0.55
v -0.5 0.35 0.45
v -0.4 0.35 0.45
v -0.3 0.35 0.45
v 0.3 0.35 0.45
v 0.4 0.35 0.45
v 0.5 0.35 0.45
v 0.4 0.35 0.15
v 0.5 0.35 0.15
v 0.4 0.35 -0.05
v 0.5 0.35 -0.05
v -0.5 0.35 -0.15
v -0.4 0.35 -0.15
v 0.4 0.35 -0.15
v 0.5 0.35 -0.15
v -0.4 0.35 -0.35
v 0.4 0.35 -0.35
v -0.5 0.35 -0.45
v -0.4 0.35 -0.45
v -0.3 0.35 -0.45
v 0.3 0.35 -0.45
v 0.4 0.35 -0.45
v 0.5 0.35 -0.45
v -0.4 0.35 -0.55
v 0.4 0.35 -0.55
v -0.3 0.45 0.55
v 0.3 0.45 0.55
v -0.4 0.45 0.45
v -0.3 0.45 0.45
v 0.3 0.45 0.45
v 0.4 0.45 0.45
v -0.4 0.45 -0.35
v -0.3 0.45 -0.35
v 0.3 0.45 -0.35
v 0.4 0.45 -0.35
v -0.4 0.45 -0.45
v -0.3 0.45 -0.45
v 0.3 0.45 -0.45
v 0.4 0.45 -0.45

# faces
f 5/3/1 2/3/1 1/3/1
f 6/3/1 2/3/1 5/3/1
f 7/3/1 2/3/1 6/3/1
f 8/4/1 4/4/1 3/4/1
f 8/2/1 3/2/1 2/2/1
f 9/4/1 4/4/1 8/4/1
f 10/1/1 6/1/1 5/1/1
f 11/2/1 7/2/1 6/2/1
f 11/1/1 6/1/1 10/1/1
f 12/3/1 2/3/1 7/3/1
f 12/2/1 7/2/1 11/2/1
f 13/2/1 8/2/1 2/2/1
f 13/3/1 2/3/1 12/3/1
f 13/2/1 9/2/1 8/2/1
f 14/2/1 9/2/1 13/2/1
f 15/2/1 12/2/1 11/2/1
f 15/3/1 14/3/1 13/3/1
f 15/2/1 13/2/1 12/2/1
f 16/2/1 9/2/1 14/2/1
f 16/3/1 14/3/1 15/3/1
f 17/2/1 16/2/1 15/2/1
f 17/2/1 9/2/1 16/2/1
f 18/4/1 4/4/1 9/4/1
f 18/2/1 9/2/1 17/2/1
f 19/2/1 15/2/1 11/2/1
f 19/2/1 17/2/1 15/2/1
f 20/4/1 18/4/1 17/4/1
f 20/2/1 17/2/1 19/2/1
f 21/4/1 4/4/1 18/4/1
f 21/4/1 18/4/1 20/4/1
f 24/4/1 23/4/1 22/4/1
f 25/4/1 23/4/1 24/4/1
f 28/1/1 27/1/1 26/1/1
f 29/1/1 27/1/1 28/1/1
f 30/3/1 25/3/1 24/3/1
f 31/3/1 25/3/1 30/3/1
f 32/1/1 31/1/1 30/1/1
f 33/1/1 31/1/1 32/1/1
f 34/2/1 29/2/1 28/2/1
f 35/2/1 29/2/1 34/2/1
f 38/3/1 33/3/1 32/3/1
f 39/3/1 33/3/1 38/3/1
f 40/3/1 37/3/1 36/3/1
f 40/3/1 36/3/1 35/3/1
f 41/4/1 38/4/1 37/4/1
f 41/3/1 37/3/1 40/3/1
f 42/4/1 38/4/1 41/4/1
f 45/2/1 44/2/1 43/2/1
f 46/2/1 44/2/1 45/2/1
f 49/3/1 48/3/1 47/3/1
f 50/3/1 48/3/1 49/3/1
f 55/1/1 52/1/1 51/1/1
f 56/1/1 52/1/1 55/1/1
f 57/2/1 54/2/1 53/2/1
f 58/2/1 54/2/1 57/2/1
f 61/2/1 60/2/1 59/2/1
f 62/2/1 60/2/1 61/2/1
f 65/2/1 64/2/1 63/2/1
f 66/2/1 64/2/1 65/2/1
f 69/1/1 68/1/1 67/1/1
f 70/1/1 68/1/1 69/1/1
f 71/2/1 70/2/1 69/2/1
f 72/2/1 70/2/1 71/2/1
f 73/1/2 74/1/2 75/1/2
f 75/1/2 74/1/2 76/1/2
f 75/2/2 76/2/2 77/2/2
f 77/2/2 76/2/2 78/2/2
f 79/2/2 80/2/2 81/2/2
f 81/2/2 80/2/2 82/2/2
f 83/2/2 84/2/2 85/2/2
f 85/2/2 84/2/2 86/2/2
f 87/1/2 88/1/2 91/1/2
f 91/1/2 88/1/2 92/1/2
f 89/2/2 90/2/2 93/2/2
f 93/2/2 90/2/2 94/2/2
f 95/2/2 96/2/2 97/2/2
f 97/2/2 96/2/2 98/2/2
f 99/3/2 100/3/2 101/3/2
f 101/3/2 100/3/2 102/3/2
f 103/4/2 104/4/2 105/4/2
f 105/4/2 104/4/2 106/4/2
f 105/1/2 106/1/2 109/1/2
f 109/1/2 106/1/2 110/1/2
f 107/1/2 108/1/2 111/1/2
f 111/1/2 108/1/2 112/1/2
f 111/2/2 112/2/2 113/2/2
f 113/2/2 112/2/2 114/2/2
f 109/3/2 110/3/2 119/3/2
f 119/3/2 110/3/2 120/3/2
f 117/3/2 118/3/2 121/3/2
f 114/3/2 115/3/2 121/3/2
f 115/3/2 116/3/2 121/3/2
f 116/3/2 117/3/2 121/3/2
f 118/4/2 119/4/2 122/4/2
f 121/3/2 118/3/2 122/3/2
f 122/4/2 119/4/2 123/4/2
f 124/3/2 125/3/2 128/3/2
f 128/3/2 125/3/2 129/3/2
f 129/3/2 125/3/2 130/3/2
f 126/4/2 127/4/2 131/4/2
f 125/2/2 126/2/2 131/2/2
f 131/4/2 127/4/2 132/4/2
f 128/1/2 129/1/2 133/1/2
f 129/2/2 130/2/2 134/2/2
f 133/1/2 129/1/2 134/1/2
f 130/3/2 125/3/2 135/3/2
f 134/2/2 130/2/2 135/2/2
f 125/2/2 131/2/2 136/2/2
f 135/3/2 125/3/2 136/3/2
f 131/2/2 132/2/2 136/2/2
f 136/2/2 132/2/2 137/2/2
f 134/2/2 135/2/2 138/2/2
f 136/3/2 137/3/2 138/3/2
f 135/2/2 136/2/2 138/2/2
f 137/2/2 132/2/2 139/2/2
f 138/3/2 137/3/2 139/3/2
f 138/2/2 139/2/2 140/2/2
f 139/2/2 132/2/2 140/2/2
f 140/2/2 132/2/2 141/2/2
f 134/2/2 138/2/2 142/2/2
f 138/2/2 140/2/2 142/2/2
f 140/3/2 141/3/2 143/3/2
f 142/2/2 140/2/2 143/2/2
f 141/2/2 132/2/2 144/2/2
f 132/4/2 127/4/2 145/4/2
f 144/2/2 132/2/2 145/2/2
f 134/2/2 142/2/2 146/2/2
f 142/3/2 143/3/2 147/3/2
f 146/2/2 142/2/2 147/2/2
f 143/3/2 141/3/2 148/3/2
f 147/3/2 143/3/2 148/3/2
f 141/2/2 144/2/2 148/2/2
f 144/4/2 145/4/2 149/4/2
f 148/2/2 144/2/2 149/2/2
f 145/4/2 127/4/2 150/4/2
f 149/4/2 145/4/2 150/4/2
f 154/3/3 152/3/3 151/3/3
f 154/1/3 153/1/3 152/1/3
f 155/1/3 153/1/3 154/1/3
f 158/2/3 155/2/3 154/2/3
f 158/1/3 156/1/3 155/1/3
f 159/2/3 157/2/3 156/2/3
f 159/1/3 156/1/3 158/1/3
f 160/2/3 157/2/3 159/2/3
f 161/2/3 157/2/3 160/2/3
f 162/2/3 157/2/3 161/2/3
f 165/3/3 154/3/3 151/3/3
f 166/2/3 158/2/3 154/2/3
f 166/3/3 154/3/3 165/3/3
f 167/2/3 161/2/3 160/2/3
f 168/3/3 163/3/3 162/3/3
f 168/2/3 161/2/3 167/2/3
f 168/3/3 162/3/3 161/3/3
f 169/3/3 163/3/3 168/3/3
f 170/2/3 158/2/3 166/2/3
f 170/5/3 166/5/3 165/5/3
f 171/2/3 158/2/3 170/2/3
f 172/2/3 167/2/3 160/2/3
f 173/1/3 168/1/3 167/1/3
f 173/2/3 167/2/3 172/2/3
f 174/2/3 169/2/3 168/2/3
f 174/1/3 168/1/3 173/1/3
f 175/4/3 171/4/3 170/4/3
f 175/5/3 170/5/3 165/5/3
f 176/2/3 173/2/3 172/2/3
f 176/4/3 171/4/3 175/4/3
f 176/2/3 172/2/3 171/2/3
f 176/2/3 174/2/3 173/2/3
f 177/2/3 174/2/3 176/2/3
f 178/1/3 165/1/3 164/1/3
f 179/5/3 175/5/3 165/5/3
f 179/1/3 165/1/3 178/1/3
f 180/2/3 176/2/3 175/2/3
f 180/5/3 175/5/3 179/5/3
f 181/2/3 176/2/3 180/2/3
f 183/2/3 174/2/3 177/2/3
f 184/3/3 163/3/3 169/3/3
f 184/2/3 169/2/3 174/2/3
f 184/2/3 174/2/3 183/2/3
f 185/3/3 163/3/3 184/3/3
f 186/3/3 180/3/3 179/3/3
f 186/2/3 181/2/3 180/2/3
f 187/1/3 182/1/3 181/1/3
f 187/2/3 181/2/3 186/2/3
f 188/2/3 183/2/3 182/2/3
f 188/1/3 182/1/3 187/1/3
f 188/2/3 184/2/3 183/2/3
f 189/2/3 184/2/3 188/2/3
f 190/3/3 186/3/3 179/3/3
f 191/1/3 187/1/3 186/1/3
f 191/3/3 186/3/3 190/3/3
f 192/1/3 187/1/3 191/1/3
f 195/2/3 194/2/3 193/2/3
f 196/2/3 194/2/3 195/2/3
f 197/2/3 194/2/3 196/2/3
f 204/3/3 198/3/3 197/3/3
f 205/3/3 198/3/3 204/3/3
f 206/2/3 200/2/3 199/2/3
f 207/2/3 200/2/3 206/2/3
f 208/5/3 203/5/3 202/5/3
f 208/5/3 202/5/3 201/5/3
f 209/5/3 203/5/3 208/5/3
f 214/2/3 213/2/3 212/2/3
f 215/2/3 213/2/3 214/2/3
f 216/5/3 211/5/3 210/5/3
f 217/5/3 211/5/3 216/5/3
f 218/5/3 211/5/3 217/5/3
f 223/3/3 220/3/3 219/3/3
f 224/3/3 220/3/3 223/3/3
f 225/2/3 222/2/3 221/2/3
f 225/2/3 223/2/3 222/2/3
f 226/2/3 223/2/3 225/2/3
f 227/2/4 228/2/4 229/2/4
f 229/2/4 228/2/4 230/2/4
f 231/2/4 232/2/4 233/2/4
f 233/2/4 232/2/4 234/2/4
f 235/2/4 236/2/4 237/2/4
f 237/2/4 236/2/4 238/2/4
f 239/2/4 240/2/4 241/2/4
f 241/2/4 240/2/4 242/2/4
f 243/2/4 244/2/4 245/2/4
f 245/2/4 244/2/4 246/2/4
f 247/4/4 248/4/4 249/4/4
f 249/4/4 248/4/4 250/4/4
f 250/4/4 248/4/4 251/4/4
f 251/4/4 248/4/4 252/4/4
f 252/4/4 248/4/4 253/4/4
f 253/4/4 254/4/4 255/4/4
f 255/4/4 254/4/4 256/4/4
f 255/3/4 256/3/4 257/3/4
f 257/3/4 256/3/4 258/3/4
f 257/4/4 258/4/4 262/4/4
f 262/4/4 258/4/4 263/4/4
f 260/4/4 261/4/4 264/4/4
f 259/4/4 260/4/4 264/4/4
f 261/4/4 262/4/4 264/4/4
f 264/4/4 262/4/4 265/4/4
f 266/4/4 267/4/4 271/4/4
f 267/3/4 268/3/4 272/3/4
f 271/4/4 267/4/4 272/4/4
f 268/1/4 269/1/4 273/1/4
f 272/3/4 268/3/4 273/3/4
f 269/3/4 270/3/4 274/3/4
f 273/1/4 269/1/4 274/1/4
f 272/3/4 273/3/4 275/3/4
f 271/3/4 272/3/4 275/3/4
f 273/3/4 274/3/4 275/3/4
f 275/3/4 274/3/4 276/3/4
f 276/3/4 274/3/4 277/3/4
f 275/4/4 276/4/4 278/4/4
f 276/1/4 277/1/4 279/1/4
f 278/4/4 276/4/4 279/4/4
f 277/3/4 274/3/4 280/3/4
f 279/1/4 277/1/4 280/1/4
f 274/3/4 270/3/4 281/3/4
f 280/3/4 274/3/4 281/3/4
f 285/1/5 283/1/5 282/1/5
f 286/1/5 283/1/5 285/1/5
f 288/2/5 285/2/5 284/2/5
f 288/2/5 287/2/5 286/2/5
f 288/2/5 286/2/5 285/2/5
f 289/2/5 287/2/5 288/2/5
f 290/2/5 287/2/5 289/2/5
f 291/2/5 287/2/5 290/2/5
f 292/2/5 290/2/5 289/2/5
f 293/2/5 290/2/5 292/2/5
f 294/2/5 290/2/5 293/2/5
f 295/2/5 290/2/5 294/2/5
f 296/2/5 294/2/5 293/2/5
f 297/2/5 294/2/5 296/2/5
f 302/3/5 299/3/5 298/3/5
f 303/3/5 299/3/5 302/3/5
f 304/3/5 299/3/5 303/3/5
f 305/3/5 301/3/5 300/3/5
f 306/3/5 301/3/5 305/3/5
f 307/3/5 301/3/5 306/3/5
f 308/3/5 302/3/5 298/3/5
f 309/2/5 303/2/5 302/2/5
f 309/3/5 302/3/5 308/3/5
f 310/3/5 301/3/5 307/3/5
f 310/2/5 307/2/5 306/2/5
f 311/3/5 301/3/5 310/3/5
f 312/2/5 309/2/5 308/2/5
f 313/2/5 303/2/5 309/2/5
f 313/2/5 309/2/5 312/2/5
f 314/2/5 303/2/5 313/2/5
f 317/2/5 310/2/5 306/2/5
f 317/2/5 311/2/5 310/2/5
f 318/2/5 311/2/5 317/2/5
f 319/2/5 311/2/5 318/2/5
f 320/2/5 315/2/5 314/2/5
f 320/2/5 314/2/5 313/2/5
f 323/2/5 317/2/5 316/2/5
f 323/2/5 318/2/5 317/2/5
f 324/2/5 321/2/5 320/2/5
f 325/2/5 323/2/5 322/2/5
f 326/4/5 313/4/5 312/4/5
f 326/2/5 325/2/5 324/2/5
f 326/2/5 324/2/5 320/2/5
f 326/2/5 320/2/5 313/2/5
f 327/2/5 325/2/5 326/2/5
f 328/2/5 323/2/5 325/2/5
f 328/2/5 325/2/5 327/2/5
f 328/2/5 318/2/5 323/2/5
f 329/4/5 319/4/5 318/4/5
f 329/2/5 318/2/5 328/2/5
f 330/4/5 326/4/5 312/4/5
f 331/3/5 327/3/5 326/3/5
f 331/4/5 326/4/5 330/4/5
f 332/2/5 328/2/5 327/2/5
f 332/3/5 327/3/5 331/3/5
f 333/3/5 329/3/5 328/3/5
f 333/2/5 328/2/5 332/2/5
f 334/4/5 319/4/5 329/4/5
f 334/3/5 329/3/5 333/3/5
f 335/4/5 319/4/5 334/4/5
f 336/4/5 332/4/5 331/4/5
f 337/3/5 333/3/5 332/3/5
f 337/4/5 332/4/5 336/4/5
f 338/4/5 334/4/5 333/4/5
f 338/3/5 333/3/5 337/3/5
f 339/4/5 334/4/5 338/4/5
f 344/2/5 341/2/5 340/2/5
f 345/2/5 341/2/5 344/2/5
f 346/2/5 343/2/5 342/2/5
f 347/2/5 343/2/5 346/2/5
f 348/1/6 349/1/6 356/1/6
f 356/1/6 349/1/6 357/1/6
f 350/2/6 351/2/6 358/2/6
f 358/2/6 351/2/6 359/2/6
f 352/2/6 353/2/6 360/2/6
f 360/2/6 353/2/6 361/2/6
f 354/1/6 355/1/6 362/1/6
f 362/1/6 355/1/6 363/1/6
f 364/2/6 365/2/6 369/2/6
f 369/2/6 365/2/6 370/2/6
f 366/2/6 367/2/6 371/2/6
f 371/2/6 367/2/6 372/2/6
f 372/2/6 373/2/6 374/2/6
f 374/2/6 373/2/6 375/2/6
f 374/3/6 375/3/6 376/3/6
f 376/3/6 375/3/6 377/3/6
f 368/2/6 369/2/6 378/2/6
f 378/2/6 369/2/6 379/2/6
f 376/2/6 377/2/6 380/2/6
f 380/2/6 377/2/6 381/2/6
f 378/4/6 379/4/6 382/4/6
f 380/4/6 381/4/6 383/4/6
f 378/4/6 382/4/6 384/4/6
f 384/4/6 382/4/6 385/4/6
f 383/4/6 381/4/6 388/4/6
f 388/4/6 381/4/6 389/4/6
f 386/3/6 387/3/6 390/3/6
f 387/3/6 388/3/6 390/3/6
f 385/3/6 386/3/6 390/3/6
f 390/3/6 388/3/6 391/3/6
f 392/3/6 393/3/6 395/3/6
f 395/3/6 393/3/6 396/3/6
f 394/3/6 395/3/6 398/3/6
f 396/3/6 397/3/6 398/3/6
f 395/3/6 396/3/6 398/3/6
f 398/3/6 397/3/6 399/3/6
f 399/3/6 397/3/6 400/3/6
f 400/3/6 397/3/6 401/3/6
f 398/4/6 399/4/6 402/4/6
f 399/3/6 400/3/6 403/3/6
f 402/4/6 399/4/6 403/4/6
f 400/4/6 401/4/6 404/4/6
f 403/3/6 400/3/6 404/3/6
f 404/4/6 401/4/6 405/4/6
