# MagicaVoxel @ Ephtracy

# group
o 

# material
mtllib Esqueleto-Perna-Esquerda.mtl
usemtl palette

# normals
vn -1 0 0
vn 1 0 0
vn 0 0 1
vn 0 0 -1
vn 0 -1 0
vn 0 1 0

# texcoords
vt 0.958984 0.5
vt 0.962891 0.5
vt 0.966797 0.5

# verts
v -0.1 -0.25 0.2
v -0.1 -0.25 0.1
v -0.1 -0.25 -0.1
v -0.1 -0.15 0.2
v -0.1 -0.15 0.1
v -0.1 -0.15 0
v -0.1 -0.15 -0.1
v -0.1 -0.05 0.1
v -0.1 -0.05 0
v -0.1 -0.05 -0.1
v -0.1 -0.05 -0.2
v -0.1 0.05 0.2
v -0.1 0.05 0.1
v -0.1 0.15 0.2
v -0.1 0.15 0.1
v -0.1 0.15 -0.1
v -0.1 0.15 -0.2
v -0.1 0.25 0.1
v -0.1 0.25 -0.1
v 0.1 -0.25 0.2
v 0.1 -0.25 0
v 0.1 -0.25 -0.1
v 0.1 -0.15 0.2
v 0.1 -0.15 0.1
v 0.1 -0.15 0
v 0.1 -0.15 -0.1
v 0.1 -0.05 0.1
v 0.1 -0.05 -0.1
v 0.1 -0.05 -0.2
v 0.1 0.05 0.2
v 0.1 0.05 0.1
v 0.1 0.15 0.2
v 0.1 0.15 0.1
v 0.1 0.15 -0.1
v 0.1 0.15 -0.2
v 0.1 0.25 0.1
v 0.1 0.25 -0.1
v -0.1 -0.25 0.2
v -0.1 -0.15 0.2
v -0.1 0.05 0.2
v -0.1 0.15 0.2
v 0 -0.25 0.2
v 0 -0.15 0.2
v 0.1 -0.25 0.2
v 0.1 -0.15 0.2
v 0.1 0.05 0.2
v 0.1 0.15 0.2
v -0.1 -0.15 0.1
v -0.1 -0.05 0.1
v -0.1 0.05 0.1
v -0.1 0.15 0.1
v -0.1 0.25 0.1
v 0 -0.15 0.1
v 0.1 -0.15 0.1
v 0.1 -0.05 0.1
v 0.1 0.05 0.1
v 0.1 0.15 0.1
v 0.1 0.25 0.1
v -0.1 -0.25 -0.1
v -0.1 -0.15 -0.1
v -0.1 -0.05 -0.1
v -0.1 0.15 -0.1
v -0.1 0.25 -0.1
v 0 -0.25 -0.1
v 0 -0.15 -0.1
v 0 -0.05 -0.1
v 0.1 -0.25 -0.1
v 0.1 -0.15 -0.1
v 0.1 -0.05 -0.1
v 0.1 0.15 -0.1
v 0.1 0.25 -0.1
v -0.1 -0.05 -0.2
v -0.1 0.15 -0.2
v 0.1 -0.05 -0.2
v 0.1 0.15 -0.2
v -0.1 -0.25 0.2
v 0 -0.25 0.2
v 0.1 -0.25 0.2
v -0.1 -0.25 0.1
v 0 -0.25 0.1
v 0 -0.25 0
v 0.1 -0.25 0
v -0.1 -0.25 -0.1
v 0 -0.25 -0.1
v 0.1 -0.25 -0.1
v -0.1 -0.05 -0.1
v 0 -0.05 -0.1
v 0.1 -0.05 -0.1
v -0.1 -0.05 -0.2
v 0.1 -0.05 -0.2
v -0.1 0.05 0.2
v 0.1 0.05 0.2
v -0.1 0.05 0.1
v 0.1 0.05 0.1
v -0.1 -0.15 0.2
v 0 -0.15 0.2
v 0.1 -0.15 0.2
v -0.1 -0.15 0.1
v 0 -0.15 0.1
v 0.1 -0.15 0.1
v -0.1 0.15 0.2
v 0.1 0.15 0.2
v -0.1 0.15 0.1
v 0.1 0.15 0.1
v -0.1 0.15 -0.1
v 0.1 0.15 -0.1
v -0.1 0.15 -0.2
v 0.1 0.15 -0.2
v -0.1 0.25 0.1
v 0.1 0.25 0.1
v -0.1 0.25 -0.1
v 0.1 0.25 -0.1

# faces
f 4/2/1 2/2/1 1/2/1
f 5/3/1 3/3/1 2/3/1
f 5/2/1 2/2/1 4/2/1
f 6/3/1 3/3/1 5/3/1
f 7/3/1 3/3/1 6/3/1
f 8/3/1 6/3/1 5/3/1
f 9/2/1 7/2/1 6/2/1
f 9/3/1 6/3/1 8/3/1
f 10/2/1 7/2/1 9/2/1
f 13/1/1 10/1/1 9/1/1
f 13/1/1 11/1/1 10/1/1
f 13/1/1 9/1/1 8/1/1
f 14/1/1 13/1/1 12/1/1
f 15/1/1 11/1/1 13/1/1
f 15/1/1 13/1/1 14/1/1
f 16/1/1 11/1/1 15/1/1
f 17/1/1 11/1/1 16/1/1
f 18/1/1 16/1/1 15/1/1
f 19/1/1 16/1/1 18/1/1
f 20/3/2 21/3/2 23/3/2
f 23/3/2 21/3/2 24/3/2
f 21/2/2 22/2/2 25/2/2
f 24/3/2 21/3/2 25/3/2
f 25/2/2 22/2/2 26/2/2
f 24/3/2 25/3/2 27/3/2
f 25/3/2 26/3/2 27/3/2
f 27/3/2 26/3/2 28/3/2
f 27/1/2 28/1/2 31/1/2
f 28/1/2 29/1/2 31/1/2
f 30/1/2 31/1/2 32/1/2
f 31/1/2 29/1/2 33/1/2
f 32/1/2 31/1/2 33/1/2
f 33/1/2 29/1/2 34/1/2
f 34/1/2 29/1/2 35/1/2
f 33/1/2 34/1/2 36/1/2
f 36/1/2 34/1/2 37/1/2
f 42/2/3 39/2/3 38/2/3
f 43/2/3 39/2/3 42/2/3
f 44/3/3 43/3/3 42/3/3
f 45/3/3 43/3/3 44/3/3
f 46/1/3 41/1/3 40/1/3
f 47/1/3 41/1/3 46/1/3
f 53/3/3 49/3/3 48/3/3
f 54/3/3 49/3/3 53/3/3
f 55/1/3 50/1/3 49/1/3
f 55/3/3 49/3/3 54/3/3
f 56/1/3 50/1/3 55/1/3
f 57/1/3 52/1/3 51/1/3
f 58/1/3 52/1/3 57/1/3
f 59/3/4 60/3/4 64/3/4
f 60/2/4 61/2/4 65/2/4
f 64/3/4 60/3/4 65/3/4
f 65/2/4 61/2/4 66/2/4
f 64/2/4 65/2/4 67/2/4
f 65/3/4 66/3/4 68/3/4
f 67/2/4 65/2/4 68/2/4
f 68/3/4 66/3/4 69/3/4
f 62/1/4 63/1/4 70/1/4
f 70/1/4 63/1/4 71/1/4
f 72/1/4 73/1/4 74/1/4
f 74/1/4 73/1/4 75/1/4
f 79/2/5 77/2/5 76/2/5
f 80/3/5 78/3/5 77/3/5
f 80/2/5 77/2/5 79/2/5
f 81/3/5 80/3/5 79/3/5
f 81/3/5 78/3/5 80/3/5
f 82/3/5 78/3/5 81/3/5
f 83/3/5 81/3/5 79/3/5
f 84/2/5 82/2/5 81/2/5
f 84/3/5 81/3/5 83/3/5
f 85/2/5 82/2/5 84/2/5
f 89/1/5 87/1/5 86/1/5
f 89/1/5 88/1/5 87/1/5
f 90/1/5 88/1/5 89/1/5
f 93/1/5 92/1/5 91/1/5
f 94/1/5 92/1/5 93/1/5
f 95/2/6 96/2/6 98/2/6
f 96/3/6 97/3/6 99/3/6
f 98/2/6 96/2/6 99/2/6
f 99/3/6 97/3/6 100/3/6
f 101/1/6 102/1/6 103/1/6
f 103/1/6 102/1/6 104/1/6
f 105/1/6 106/1/6 107/1/6
f 107/1/6 106/1/6 108/1/6
f 109/1/6 110/1/6 111/1/6
f 111/1/6 110/1/6 112/1/6
