# MagicaVoxel @ Ephtracy

# group
o 

# material
mtllib TestPlataform.mtl
usemtl palette

# normals
vn -1 0 0
vn 1 0 0
vn 0 0 1
vn 0 0 -1
vn 0 -1 0
vn 0 1 0

# texcoords
vt 0.0566406 0.5
vt 0.224609 0.5
vt 0.228516 0.5
vt 0.232422 0.5
vt 0.333984 0.5
vt 0.353516 0.5
vt 0.357422 0.5

# verts
v -0.9 1.5 5
v -0.9 1.5 3.6
v -0.9 1.7 5
v -0.9 1.7 3.6
v -0.9 1.8 5
v -0.9 1.8 4.8
v -0.9 1.8 3.6
v -0.9 1.9 4.8
v -0.9 1.9 3.6
v -0.8 1.5 5.2
v -0.8 1.5 5
v -0.8 1.5 3.6
v -0.8 1.5 3.5
v -0.8 1.6 5.1
v -0.8 1.6 5
v -0.8 1.7 5.2
v -0.8 1.7 5.1
v -0.8 1.7 5
v -0.8 1.7 3.6
v -0.8 1.7 3.5
v -0.8 1.8 5.2
v -0.8 1.8 5.1
v -0.8 1.8 5
v -0.8 1.8 4.8
v -0.8 1.8 3.6
v -0.8 1.8 3.5
v -0.8 1.9 5.1
v -0.8 1.9 4.8
v -0.8 1.9 3.6
v -0.8 1.9 3.5
v -0.7 1.5 5.3
v -0.7 1.5 5.2
v -0.7 1.6 5.4
v -0.7 1.6 5.3
v -0.7 1.7 5.4
v -0.7 1.7 5.3
v -0.7 1.7 5.2
v -0.7 1.7 3.5
v -0.7 1.7 3.4
v -0.7 1.8 5.3
v -0.7 1.8 5.2
v -0.7 1.8 3.5
v -0.7 1.8 3.4
v -0.7 1.9 3.5
v -0.7 1.9 3.4
v -0.6 1.7 5.4
v -0.6 1.7 5.3
v -0.6 1.7 3.4
v -0.6 1.7 3.3
v -0.6 1.8 5.4
v -0.6 1.8 5.3
v -0.6 1.8 5.2
v -0.6 1.8 5.1
v -0.6 1.8 3.4
v -0.6 1.8 3.3
v -0.6 1.9 5.2
v -0.6 1.9 5.1
v -0.6 1.9 3.4
v -0.6 1.9 3.3
v -0.5 1.6 3.5
v -0.5 1.6 3.4
v -0.5 1.6 3.3
v -0.5 1.7 3.5
v -0.5 1.7 3.4
v -0.5 1.7 3.3
v -0.5 1.7 3.2
v -0.5 1.8 3.3
v -0.5 1.8 3.2
v -0.5 1.9 3.3
v -0.5 1.9 3.2
v -0.4 1.5 3.5
v -0.4 1.5 3.4
v -0.4 1.5 3.3
v -0.4 1.6 3.5
v -0.4 1.6 3.4
v -0.4 1.6 3.3
v -0.3 1.8 5.3
v -0.3 1.8 5.2
v -0.3 1.9 5.3
v -0.3 1.9 5.2
v -0.2 1.5 3.3
v -0.2 1.5 3.2
v -0.2 1.7 3.3
v -0.2 1.7 3.2
v -0.2 1.7 3.1
v -0.2 1.8 3.2
v -0.2 1.8 3.1
v -0.1 1.5 3.2
v -0.1 1.5 3
v -0.1 1.6 3.1
v -0.1 1.6 3
v -0.1 1.7 3.2
v -0.1 1.7 3.1
v 0.2 1.6 3.1
v 0.2 1.6 3
v 0.2 1.7 3.1
v 0.2 1.7 3
v 0.2 1.8 3.2
v 0.2 1.8 3.1
v 0.2 1.8 3
v 0.2 1.9 3.2
v 0.2 1.9 3.1
v 0.4 1.5 5.4
v 0.4 1.5 5.3
v 0.4 1.6 5.4
v 0.4 1.6 5.3
v 0.6 1.8 3.1
v 0.6 1.8 3
v 0.6 1.9 3.1
v 0.6 1.9 3
v 0.6 1.7 5.4
v 0.6 1.7 5.3
v 0.6 1.8 5.4
v 0.6 1.8 5.3
v 0.7 1.8 3.1
v 0.7 1.8 3
v 0.7 1.9 3.1
v 0.7 1.9 3
v 0.9 1.5 5.4
v 0.9 1.5 5.3
v 0.9 1.5 3.2
v 0.9 1.5 3
v 0.9 1.7 5.4
v 0.9 1.7 5.3
v 0.9 1.7 5.2
v 0.9 1.7 3.2
v 0.9 1.7 3
v 0.9 1.8 5.3
v 0.9 1.8 5.2
v 0.9 1.8 3.2
v 0.9 1.8 3.1
v 0.9 1.8 3
v 0.9 1.9 5.3
v 0.9 1.9 5.2
v 0.9 1.9 3.2
v 0.9 1.9 3.1
v 1 1.5 5.3
v 1 1.5 5.2
v 1 1.5 3.3
v 1 1.5 3.2
v 1 1.7 5.3
v 1 1.7 5.2
v 1 1.7 3.3
v 1 1.7 3.2
v 1 1.8 3.4
v 1 1.8 3.3
v 1 1.8 3.2
v 1 1.9 3.4
v 1 1.9 3.2
v 1.1 1.5 3.4
v 1.1 1.5 3.3
v 1.1 1.7 5.2
v 1.1 1.7 5.1
v 1.1 1.7 3.4
v 1.1 1.7 3.3
v 1.1 1.8 5.2
v 1.1 1.8 5.1
v 1.1 1.8 3.5
v 1.1 1.8 3.4
v 1.1 1.8 3.3
v 1.1 1.9 5.2
v 1.1 1.9 5.1
v 1.1 1.9 3.5
v 1.1 1.9 3.4
v 1.2 1.5 5.2
v 1.2 1.5 5.1
v 1.2 1.5 5
v 1.2 1.5 3.5
v 1.2 1.5 3.4
v 1.2 1.6 5.2
v 1.2 1.6 5.1
v 1.2 1.6 5
v 1.2 1.7 3.6
v 1.2 1.7 3.5
v 1.2 1.7 3.4
v 1.2 1.8 5.1
v 1.2 1.8 3.6
v 1.2 1.8 3.5
v 1.2 1.8 3.4
v 1.2 1.9 5.1
v 1.2 1.9 3.5
v 1.3 1.5 5
v 1.3 1.5 3.5
v 1.3 1.6 5.2
v 1.3 1.6 5
v 1.3 1.7 5.2
v 1.3 1.7 5.1
v 1.3 1.7 3.6
v 1.3 1.7 3.5
v 1.3 1.8 5.1
v 1.3 1.8 3.6
v -0.7 1.6 5.4
v -0.7 1.7 5.4
v -0.6 1.7 5.4
v -0.6 1.8 5.4
v 0.4 1.5 5.4
v 0.4 1.6 5.4
v 0.6 1.7 5.4
v 0.6 1.8 5.4
v 0.9 1.5 5.4
v 0.9 1.7 5.4
v -0.7 1.5 5.3
v -0.7 1.6 5.3
v -0.7 1.7 5.3
v -0.7 1.8 5.3
v -0.6 1.7 5.3
v -0.6 1.8 5.3
v -0.3 1.8 5.3
v -0.3 1.9 5.3
v 0.4 1.5 5.3
v 0.4 1.6 5.3
v 0.6 1.7 5.3
v 0.6 1.8 5.3
v 0.9 1.5 5.3
v 0.9 1.7 5.3
v 0.9 1.8 5.3
v 0.9 1.9 5.3
v 1 1.5 5.3
v 1 1.7 5.3
v -0.8 1.5 5.2
v -0.8 1.7 5.2
v -0.8 1.8 5.2
v -0.7 1.5 5.2
v -0.7 1.7 5.2
v -0.7 1.8 5.2
v -0.6 1.8 5.2
v -0.6 1.9 5.2
v -0.3 1.8 5.2
v -0.3 1.9 5.2
v 0.9 1.7 5.2
v 0.9 1.8 5.2
v 0.9 1.9 5.2
v 1 1.5 5.2
v 1 1.7 5.2
v 1.1 1.7 5.2
v 1.1 1.8 5.2
v 1.1 1.9 5.2
v 1.2 1.5 5.2
v 1.2 1.6 5.2
v 1.3 1.6 5.2
v 1.3 1.7 5.2
v -0.8 1.8 5.1
v -0.8 1.9 5.1
v -0.6 1.8 5.1
v -0.6 1.9 5.1
v 1.1 1.7 5.1
v 1.1 1.8 5.1
v 1.1 1.9 5.1
v 1.2 1.8 5.1
v 1.2 1.9 5.1
v 1.3 1.7 5.1
v 1.3 1.8 5.1
v -0.9 1.5 5
v -0.9 1.7 5
v -0.9 1.8 5
v -0.8 1.5 5
v -0.8 1.6 5
v -0.8 1.7 5
v -0.8 1.8 5
v 1.2 1.5 5
v 1.2 1.6 5
v 1.3 1.5 5
v 1.3 1.6 5
v -0.9 1.8 4.8
v -0.9 1.9 4.8
v -0.8 1.8 4.8
v -0.8 1.9 4.8
v -0.9 1.5 3.6
v -0.9 1.7 3.6
v -0.9 1.8 3.6
v -0.9 1.9 3.6
v -0.8 1.5 3.6
v -0.8 1.7 3.6
v -0.8 1.8 3.6
v -0.8 1.9 3.6
v 1.2 1.7 3.6
v 1.2 1.8 3.6
v 1.3 1.7 3.6
v 1.3 1.8 3.6
v -0.8 1.5 3.5
v -0.8 1.7 3.5
v -0.8 1.8 3.5
v -0.8 1.9 3.5
v -0.7 1.7 3.5
v -0.7 1.8 3.5
v -0.7 1.9 3.5
v -0.6 1.7 3.5
v -0.5 1.6 3.5
v -0.5 1.7 3.5
v -0.4 1.5 3.5
v -0.4 1.6 3.5
v 1.1 1.8 3.5
v 1.1 1.9 3.5
v 1.2 1.5 3.5
v 1.2 1.7 3.5
v 1.2 1.8 3.5
v 1.2 1.9 3.5
v 1.3 1.5 3.5
v 1.3 1.7 3.5
v -0.7 1.7 3.4
v -0.7 1.8 3.4
v -0.7 1.9 3.4
v -0.6 1.7 3.4
v -0.6 1.8 3.4
v -0.6 1.9 3.4
v 1 1.8 3.4
v 1 1.9 3.4
v 1.1 1.5 3.4
v 1.1 1.7 3.4
v 1.1 1.8 3.4
v 1.1 1.9 3.4
v 1.2 1.5 3.4
v 1.2 1.7 3.4
v 1.2 1.8 3.4
v -0.6 1.7 3.3
v -0.6 1.8 3.3
v -0.6 1.9 3.3
v -0.5 1.6 3.3
v -0.5 1.7 3.3
v -0.5 1.8 3.3
v -0.5 1.9 3.3
v -0.4 1.5 3.3
v -0.4 1.6 3.3
v -0.2 1.5 3.3
v -0.2 1.7 3.3
v 1 1.5 3.3
v 1 1.7 3.3
v 1 1.8 3.3
v 1.1 1.5 3.3
v 1.1 1.7 3.3
v 1.1 1.8 3.3
v -0.5 1.7 3.2
v -0.5 1.8 3.2
v -0.5 1.9 3.2
v -0.2 1.5 3.2
v -0.2 1.7 3.2
v -0.2 1.8 3.2
v -0.1 1.5 3.2
v -0.1 1.7 3.2
v 0.2 1.8 3.2
v 0.2 1.9 3.2
v 0.9 1.5 3.2
v 0.9 1.7 3.2
v 0.9 1.8 3.2
v 0.9 1.9 3.2
v 1 1.5 3.2
v 1 1.7 3.2
v 1 1.8 3.2
v 1 1.9 3.2
v -0.2 1.7 3.1
v -0.2 1.8 3.1
v -0.1 1.6 3.1
v -0.1 1.7 3.1
v 0.2 1.6 3.1
v 0.2 1.7 3.1
v 0.2 1.8 3.1
v 0.2 1.9 3.1
v 0.6 1.8 3.1
v 0.6 1.9 3.1
v 0.7 1.8 3.1
v 0.7 1.9 3.1
v 0.9 1.8 3.1
v 0.9 1.9 3.1
v -0.1 1.5 3
v -0.1 1.6 3
v 0.2 1.6 3
v 0.2 1.7 3
v 0.2 1.8 3
v 0.6 1.8 3
v 0.6 1.9 3
v 0.7 1.8 3
v 0.7 1.9 3
v 0.9 1.5 3
v 0.9 1.7 3
v 0.9 1.8 3
v 0.4 1.5 5.4
v 0.9 1.5 5.4
v -0.7 1.5 5.3
v 0.4 1.5 5.3
v 0.9 1.5 5.3
v 1 1.5 5.3
v -0.8 1.5 5.2
v -0.7 1.5 5.2
v 0.4 1.5 5.2
v 0.9 1.5 5.2
v 1 1.5 5.2
v 1.2 1.5 5.2
v -0.7 1.5 5.1
v 0.4 1.5 5.1
v 1 1.5 5.1
v 1.2 1.5 5.1
v -0.9 1.5 5
v -0.8 1.5 5
v -0.7 1.5 5
v 1.2 1.5 5
v 1.3 1.5 5
v 0.9 1.5 4.8
v 1.2 1.5 4.8
v -0.9 1.5 3.6
v -0.8 1.5 3.6
v -0.4 1.5 3.6
v -0.8 1.5 3.5
v -0.4 1.5 3.5
v 0.2 1.5 3.5
v 1.1 1.5 3.5
v 1.2 1.5 3.5
v 1.3 1.5 3.5
v -0.4 1.5 3.4
v -0.2 1.5 3.4
v 0.2 1.5 3.4
v 1 1.5 3.4
v 1.1 1.5 3.4
v 1.2 1.5 3.4
v -0.4 1.5 3.3
v -0.2 1.5 3.3
v -0.1 1.5 3.3
v 0.9 1.5 3.3
v 1 1.5 3.3
v 1.1 1.5 3.3
v -0.2 1.5 3.2
v -0.1 1.5 3.2
v 0 1.5 3.2
v 0.8 1.5 3.2
v 0.9 1.5 3.2
v 1 1.5 3.2
v 0 1.5 3.1
v 0.8 1.5 3.1
v -0.1 1.5 3
v 0.9 1.5 3
v -0.7 1.6 5.4
v 0.4 1.6 5.4
v -0.7 1.6 5.3
v 0.4 1.6 5.3
v 1.2 1.6 5.2
v 1.3 1.6 5.2
v 1.2 1.6 5.1
v 1.2 1.6 5
v 1.3 1.6 5
v -0.5 1.6 3.5
v -0.4 1.6 3.5
v -0.5 1.6 3.4
v -0.4 1.6 3.4
v -0.5 1.6 3.3
v -0.4 1.6 3.3
v -0.7 1.7 3.5
v -0.6 1.7 3.5
v -0.5 1.7 3.5
v -0.7 1.7 3.4
v -0.6 1.7 3.4
v -0.5 1.7 3.4
v -0.6 1.7 3.3
v -0.5 1.7 3.3
v -0.2 1.7 3.3
v -0.5 1.7 3.2
v -0.2 1.7 3.2
v -0.1 1.7 3.2
v -0.2 1.7 3.1
v -0.1 1.7 3.1
v -0.1 1.6 3.1
v 0.2 1.6 3.1
v -0.1 1.6 3
v 0.2 1.6 3
v -0.7 1.7 5.4
v -0.6 1.7 5.4
v 0.6 1.7 5.4
v 0.9 1.7 5.4
v -0.7 1.7 5.3
v -0.6 1.7 5.3
v 0.6 1.7 5.3
v 0.9 1.7 5.3
v 1 1.7 5.3
v 0.9 1.7 5.2
v 1 1.7 5.2
v 1.1 1.7 5.2
v 1.3 1.7 5.2
v 1.1 1.7 5.1
v 1.3 1.7 5.1
v 1.2 1.7 3.6
v 1.3 1.7 3.6
v 1.2 1.7 3.5
v 1.3 1.7 3.5
v -0.6 1.8 5.4
v 0.6 1.8 5.4
v -0.7 1.8 5.3
v -0.6 1.8 5.3
v -0.3 1.8 5.3
v 0.6 1.8 5.3
v -0.8 1.8 5.2
v -0.7 1.8 5.2
v -0.6 1.8 5.2
v -0.3 1.8 5.2
v -0.8 1.8 5.1
v -0.6 1.8 5.1
v 1.2 1.8 5.1
v 1.3 1.8 5.1
v -0.9 1.8 5
v -0.8 1.8 5
v -0.9 1.8 4.8
v -0.8 1.8 4.8
v 1.2 1.8 3.6
v 1.3 1.8 3.6
v 1.1 1.8 3.5
v 1.2 1.8 3.5
v 1 1.8 3.4
v 1.1 1.8 3.4
v 1.2 1.8 3.4
v 1 1.8 3.3
v 1.1 1.8 3.3
v -0.2 1.8 3.2
v 0.2 1.8 3.2
v -0.2 1.8 3.1
v 0.2 1.8 3.1
v 0.6 1.8 3.1
v 0.7 1.8 3.1
v 0.9 1.8 3.1
v 0.2 1.8 3
v 0.6 1.8 3
v 0.7 1.8 3
v 0.9 1.8 3
v -0.3 1.9 5.3
v 0.9 1.9 5.3
v -0.6 1.9 5.2
v -0.3 1.9 5.2
v 0.9 1.9 5.2
v 1.1 1.9 5.2
v -0.8 1.9 5.1
v -0.6 1.9 5.1
v 1.1 1.9 5.1
v 1.2 1.9 5.1
v -0.9 1.9 4.8
v -0.8 1.9 4.8
v -0.9 1.9 3.6
v -0.8 1.9 3.6
v -0.8 1.9 3.5
v -0.7 1.9 3.5
v 1.1 1.9 3.5
v 1.2 1.9 3.5
v -0.7 1.9 3.4
v -0.6 1.9 3.4
v 1 1.9 3.4
v 1.1 1.9 3.4
v -0.6 1.9 3.3
v -0.5 1.9 3.3
v -0.5 1.9 3.2
v 0.2 1.9 3.2
v 0.9 1.9 3.2
v 1 1.9 3.2
v 0.2 1.9 3.1
v 0.6 1.9 3.1
v 0.7 1.9 3.1
v 0.9 1.9 3.1
v 0.6 1.9 3
v 0.7 1.9 3

# faces
f 3/3/1 2/3/1 1/3/1
f 4/3/1 2/3/1 3/3/1
f 5/2/1 4/2/1 3/2/1
f 6/2/1 4/2/1 5/2/1
f 7/2/1 4/2/1 6/2/1
f 8/5/1 7/5/1 6/5/1
f 9/5/1 7/5/1 8/5/1
f 14/3/1 11/3/1 10/3/1
f 15/3/1 11/3/1 14/3/1
f 16/3/1 14/3/1 10/3/1
f 17/2/1 15/2/1 14/2/1
f 17/3/1 14/3/1 16/3/1
f 18/2/1 15/2/1 17/2/1
f 19/3/1 13/3/1 12/3/1
f 20/3/1 13/3/1 19/3/1
f 21/2/1 18/2/1 17/2/1
f 21/2/1 17/2/1 16/2/1
f 22/2/1 18/2/1 21/2/1
f 23/2/1 18/2/1 22/2/1
f 25/2/1 20/2/1 19/2/1
f 26/2/1 20/2/1 25/2/1
f 27/5/1 24/5/1 23/5/1
f 27/5/1 23/5/1 22/5/1
f 28/5/1 24/5/1 27/5/1
f 29/5/1 26/5/1 25/5/1
f 30/5/1 26/5/1 29/5/1
f 34/3/1 32/3/1 31/3/1
f 35/3/1 34/3/1 33/3/1
f 36/3/1 32/3/1 34/3/1
f 36/3/1 34/3/1 35/3/1
f 37/3/1 32/3/1 36/3/1
f 40/2/1 37/2/1 36/2/1
f 41/2/1 37/2/1 40/2/1
f 42/2/1 39/2/1 38/2/1
f 43/2/1 39/2/1 42/2/1
f 44/5/1 43/5/1 42/5/1
f 45/5/1 43/5/1 44/5/1
f 50/2/1 47/2/1 46/2/1
f 51/2/1 47/2/1 50/2/1
f 54/2/1 49/2/1 48/2/1
f 55/2/1 49/2/1 54/2/1
f 56/5/1 53/5/1 52/5/1
f 57/5/1 53/5/1 56/5/1
f 58/5/1 55/5/1 54/5/1
f 59/5/1 55/5/1 58/5/1
f 63/4/1 61/4/1 60/4/1
f 64/3/1 62/3/1 61/3/1
f 64/4/1 61/4/1 63/4/1
f 65/3/1 62/3/1 64/3/1
f 67/2/1 66/2/1 65/2/1
f 68/2/1 66/2/1 67/2/1
f 69/5/1 68/5/1 67/5/1
f 70/5/1 68/5/1 69/5/1
f 74/4/1 72/4/1 71/4/1
f 75/3/1 73/3/1 72/3/1
f 75/4/1 72/4/1 74/4/1
f 76/3/1 73/3/1 75/3/1
f 79/5/1 78/5/1 77/5/1
f 80/5/1 78/5/1 79/5/1
f 83/3/1 82/3/1 81/3/1
f 84/3/1 82/3/1 83/3/1
f 86/2/1 85/2/1 84/2/1
f 87/2/1 85/2/1 86/2/1
f 90/3/1 89/3/1 88/3/1
f 91/3/1 89/3/1 90/3/1
f 92/3/1 90/3/1 88/3/1
f 93/3/1 90/3/1 92/3/1
f 96/3/1 95/3/1 94/3/1
f 97/3/1 95/3/1 96/3/1
f 99/2/1 97/2/1 96/2/1
f 100/2/1 97/2/1 99/2/1
f 101/5/1 99/5/1 98/5/1
f 102/5/1 99/5/1 101/5/1
f 105/3/1 104/3/1 103/3/1
f 106/3/1 104/3/1 105/3/1
f 109/5/1 108/5/1 107/5/1
f 110/5/1 108/5/1 109/5/1
f 111/2/2 112/2/2 113/2/2
f 113/2/2 112/2/2 114/2/2
f 115/5/2 116/5/2 117/5/2
f 117/5/2 116/5/2 118/5/2
f 119/3/2 120/3/2 123/3/2
f 123/3/2 120/3/2 124/3/2
f 121/3/2 122/3/2 126/3/2
f 126/3/2 122/3/2 127/3/2
f 124/2/2 125/2/2 128/2/2
f 128/2/2 125/2/2 129/2/2
f 126/2/2 127/2/2 130/2/2
f 130/2/2 127/2/2 131/2/2
f 131/2/2 127/2/2 132/2/2
f 128/5/2 129/5/2 133/5/2
f 133/5/2 129/5/2 134/5/2
f 130/5/2 131/5/2 135/5/2
f 135/5/2 131/5/2 136/5/2
f 137/3/2 138/3/2 141/3/2
f 141/3/2 138/3/2 142/3/2
f 139/3/2 140/3/2 143/3/2
f 143/3/2 140/3/2 144/3/2
f 143/2/2 144/2/2 146/2/2
f 146/2/2 144/2/2 147/2/2
f 145/5/2 146/5/2 148/5/2
f 146/5/2 147/5/2 148/5/2
f 148/5/2 147/5/2 149/5/2
f 150/3/2 151/3/2 154/3/2
f 154/3/2 151/3/2 155/3/2
f 152/2/2 153/2/2 156/2/2
f 156/2/2 153/2/2 157/2/2
f 154/2/2 155/2/2 159/2/2
f 159/2/2 155/2/2 160/2/2
f 156/5/2 157/5/2 161/5/2
f 161/5/2 157/5/2 162/5/2
f 158/5/2 159/5/2 163/5/2
f 163/5/2 159/5/2 164/5/2
f 165/3/2 166/3/2 170/3/2
f 166/4/2 167/4/2 171/4/2
f 170/3/2 166/3/2 171/3/2
f 171/4/2 167/4/2 172/4/2
f 168/3/2 169/3/2 174/3/2
f 174/3/2 169/3/2 175/3/2
f 173/2/2 174/2/2 177/2/2
f 174/2/2 175/2/2 177/2/2
f 177/2/2 175/2/2 178/2/2
f 178/2/2 175/2/2 179/2/2
f 176/5/2 177/5/2 180/5/2
f 177/5/2 178/5/2 180/5/2
f 180/5/2 178/5/2 181/5/2
f 182/3/2 183/3/2 185/3/2
f 184/3/2 185/3/2 186/3/2
f 186/3/2 185/3/2 187/3/2
f 185/3/2 183/3/2 188/3/2
f 187/3/2 185/3/2 188/3/2
f 188/3/2 183/3/2 189/3/2
f 187/2/2 188/2/2 190/2/2
f 190/2/2 188/2/2 191/2/2
f 194/3/3 193/3/3 192/3/3
f 197/3/3 194/3/3 192/3/3
f 198/2/3 195/2/3 194/2/3
f 198/3/3 197/3/3 196/3/3
f 198/3/3 194/3/3 197/3/3
f 199/2/3 195/2/3 198/2/3
f 200/3/3 198/3/3 196/3/3
f 201/3/3 198/3/3 200/3/3
f 206/2/3 205/2/3 204/2/3
f 207/2/3 205/2/3 206/2/3
f 210/3/3 203/3/3 202/3/3
f 211/3/3 203/3/3 210/3/3
f 213/5/3 209/5/3 208/5/3
f 215/2/3 213/2/3 212/2/3
f 216/5/3 209/5/3 213/5/3
f 216/2/3 213/2/3 215/2/3
f 217/5/3 209/5/3 216/5/3
f 218/3/3 215/3/3 214/3/3
f 219/3/3 215/3/3 218/3/3
f 223/3/3 221/3/3 220/3/3
f 224/2/3 222/2/3 221/2/3
f 224/3/3 221/3/3 223/3/3
f 225/2/3 222/2/3 224/2/3
f 228/5/3 227/5/3 226/5/3
f 229/5/3 227/5/3 228/5/3
f 234/2/3 231/2/3 230/2/3
f 235/2/3 231/2/3 234/2/3
f 235/3/3 234/3/3 233/3/3
f 236/5/3 232/5/3 231/5/3
f 236/2/3 231/2/3 235/2/3
f 237/5/3 232/5/3 236/5/3
f 238/3/3 235/3/3 233/3/3
f 239/3/3 235/3/3 238/3/3
f 240/3/3 235/3/3 239/3/3
f 241/3/3 235/3/3 240/3/3
f 244/5/3 243/5/3 242/5/3
f 245/5/3 243/5/3 244/5/3
f 249/2/3 247/2/3 246/2/3
f 249/5/3 248/5/3 247/5/3
f 250/5/3 248/5/3 249/5/3
f 251/2/3 249/2/3 246/2/3
f 252/2/3 249/2/3 251/2/3
f 256/3/3 254/3/3 253/3/3
f 257/3/3 254/3/3 256/3/3
f 258/2/3 255/2/3 254/2/3
f 258/3/3 254/3/3 257/3/3
f 259/2/3 255/2/3 258/2/3
f 262/3/3 261/3/3 260/3/3
f 263/3/3 261/3/3 262/3/3
f 266/5/3 265/5/3 264/5/3
f 267/5/3 265/5/3 266/5/3
f 268/3/4 269/3/4 272/3/4
f 269/2/4 270/2/4 273/2/4
f 272/3/4 269/3/4 273/3/4
f 270/5/4 271/5/4 274/5/4
f 273/2/4 270/2/4 274/2/4
f 274/5/4 271/5/4 275/5/4
f 276/2/4 277/2/4 278/2/4
f 278/2/4 277/2/4 279/2/4
f 280/3/4 281/3/4 284/3/4
f 281/2/4 282/2/4 284/2/4
f 282/5/4 283/5/4 285/5/4
f 284/2/4 282/2/4 285/2/4
f 285/5/4 283/5/4 286/5/4
f 280/3/4 284/3/4 287/3/4
f 280/3/4 287/3/4 288/3/4
f 288/3/4 287/3/4 289/3/4
f 280/3/4 288/3/4 290/3/4
f 290/3/4 288/3/4 291/3/4
f 292/5/4 293/5/4 296/5/4
f 296/5/4 293/5/4 297/5/4
f 294/3/4 295/3/4 298/3/4
f 298/3/4 295/3/4 299/3/4
f 300/2/4 301/2/4 303/2/4
f 301/5/4 302/5/4 304/5/4
f 303/2/4 301/2/4 304/2/4
f 304/5/4 302/5/4 305/5/4
f 306/5/4 307/5/4 310/5/4
f 310/5/4 307/5/4 311/5/4
f 308/3/4 309/3/4 312/3/4
f 309/2/4 310/2/4 313/2/4
f 312/3/4 309/3/4 313/3/4
f 313/2/4 310/2/4 314/2/4
f 315/2/4 316/2/4 319/2/4
f 316/5/4 317/5/4 320/5/4
f 319/2/4 316/2/4 320/2/4
f 320/5/4 317/5/4 321/5/4
f 318/3/4 319/3/4 323/3/4
f 322/3/4 323/3/4 324/3/4
f 323/3/4 319/3/4 325/3/4
f 324/3/4 323/3/4 325/3/4
f 326/3/4 327/3/4 329/3/4
f 327/2/4 328/2/4 330/2/4
f 329/3/4 327/3/4 330/3/4
f 330/2/4 328/2/4 331/2/4
f 332/2/4 333/2/4 336/2/4
f 333/5/4 334/5/4 337/5/4
f 336/2/4 333/2/4 337/2/4
f 335/3/4 336/3/4 338/3/4
f 338/3/4 336/3/4 339/3/4
f 337/5/4 334/5/4 340/5/4
f 340/5/4 334/5/4 341/5/4
f 342/3/4 343/3/4 346/3/4
f 343/2/4 344/2/4 347/2/4
f 346/3/4 343/3/4 347/3/4
f 344/5/4 345/5/4 348/5/4
f 347/2/4 344/2/4 348/2/4
f 348/5/4 345/5/4 349/5/4
f 350/2/4 351/2/4 353/2/4
f 352/3/4 353/3/4 354/3/4
f 353/2/4 351/2/4 355/2/4
f 354/3/4 353/3/4 355/3/4
f 355/2/4 351/2/4 356/2/4
f 356/5/4 357/5/4 358/5/4
f 358/5/4 357/5/4 359/5/4
f 360/5/4 361/5/4 362/5/4
f 362/5/4 361/5/4 363/5/4
f 364/3/4 365/3/4 366/3/4
f 367/2/4 368/2/4 369/2/4
f 367/2/4 369/2/4 371/2/4
f 369/5/4 370/5/4 371/5/4
f 371/5/4 370/5/4 372/5/4
f 364/3/4 366/3/4 373/3/4
f 366/3/4 367/3/4 373/3/4
f 367/2/4 371/2/4 374/2/4
f 373/3/4 367/3/4 374/3/4
f 374/2/4 371/2/4 375/2/4
f 379/3/5 377/3/5 376/3/5
f 380/3/5 377/3/5 379/3/5
f 383/3/5 379/3/5 378/3/5
f 384/5/5 380/5/5 379/5/5
f 384/3/5 379/3/5 383/3/5
f 385/3/5 381/3/5 380/3/5
f 385/5/5 380/5/5 384/5/5
f 386/3/5 381/3/5 385/3/5
f 388/4/5 384/4/5 383/4/5
f 388/3/5 383/3/5 382/3/5
f 389/5/5 385/5/5 384/5/5
f 389/4/5 384/4/5 388/4/5
f 390/3/5 387/3/5 386/3/5
f 390/4/5 386/4/5 385/4/5
f 391/3/5 387/3/5 390/3/5
f 393/3/5 388/3/5 382/3/5
f 394/5/5 389/5/5 388/5/5
f 394/3/5 388/3/5 393/3/5
f 395/4/5 391/4/5 390/4/5
f 397/5/5 385/5/5 389/5/5
f 397/4/5 395/4/5 390/4/5
f 397/5/5 394/5/5 393/5/5
f 397/4/5 390/4/5 385/4/5
f 397/5/5 389/5/5 394/5/5
f 398/3/5 396/3/5 395/3/5
f 398/4/5 395/4/5 397/4/5
f 399/3/5 393/3/5 392/3/5
f 400/5/5 397/5/5 393/5/5
f 400/3/5 393/3/5 399/3/5
f 400/5/5 398/5/5 397/5/5
f 401/5/5 398/5/5 400/5/5
f 402/3/5 401/3/5 400/3/5
f 403/5/5 398/5/5 401/5/5
f 403/3/5 401/3/5 402/3/5
f 404/5/5 398/5/5 403/5/5
f 405/5/5 398/5/5 404/5/5
f 406/3/5 396/3/5 398/3/5
f 406/5/5 398/5/5 405/5/5
f 407/3/5 396/3/5 406/3/5
f 408/4/5 404/4/5 403/4/5
f 409/4/5 404/4/5 408/4/5
f 410/5/5 405/5/5 404/5/5
f 410/4/5 404/4/5 409/4/5
f 411/5/5 405/5/5 410/5/5
f 412/3/5 406/3/5 405/3/5
f 412/5/5 405/5/5 411/5/5
f 413/3/5 406/3/5 412/3/5
f 414/3/5 409/3/5 408/3/5
f 415/4/5 411/4/5 410/4/5
f 415/3/5 409/3/5 414/3/5
f 415/4/5 410/4/5 409/4/5
f 416/4/5 411/4/5 415/4/5
f 417/4/5 411/4/5 416/4/5
f 418/3/5 412/3/5 411/3/5
f 418/4/5 411/4/5 417/4/5
f 419/3/5 412/3/5 418/3/5
f 420/3/5 416/3/5 415/3/5
f 421/4/5 417/4/5 416/4/5
f 421/3/5 416/3/5 420/3/5
f 422/4/5 417/4/5 421/4/5
f 423/4/5 417/4/5 422/4/5
f 424/3/5 418/3/5 417/3/5
f 424/4/5 417/4/5 423/4/5
f 425/3/5 418/3/5 424/3/5
f 426/4/5 423/4/5 422/4/5
f 426/3/5 422/3/5 421/3/5
f 427/3/5 424/3/5 423/3/5
f 427/4/5 423/4/5 426/4/5
f 428/3/5 426/3/5 421/3/5
f 428/3/5 427/3/5 426/3/5
f 429/3/5 424/3/5 427/3/5
f 429/3/5 427/3/5 428/3/5
f 432/3/5 431/3/5 430/3/5
f 433/3/5 431/3/5 432/3/5
f 436/3/5 435/3/5 434/3/5
f 437/3/5 435/3/5 436/3/5
f 438/3/5 435/3/5 437/3/5
f 441/4/5 440/4/5 439/4/5
f 442/4/5 440/4/5 441/4/5
f 443/3/5 442/3/5 441/3/5
f 444/3/5 442/3/5 443/3/5
f 448/2/5 446/2/5 445/2/5
f 449/4/5 447/4/5 446/4/5
f 449/2/5 446/2/5 448/2/5
f 450/4/5 447/4/5 449/4/5
f 451/2/5 450/2/5 449/2/5
f 452/2/5 450/2/5 451/2/5
f 454/2/5 453/2/5 452/2/5
f 455/2/5 453/2/5 454/2/5
f 457/2/5 456/2/5 455/2/5
f 458/2/5 456/2/5 457/2/5
f 459/3/6 460/3/6 461/3/6
f 461/3/6 460/3/6 462/3/6
f 463/3/6 464/3/6 467/3/6
f 467/3/6 464/3/6 468/3/6
f 465/3/6 466/3/6 469/3/6
f 469/3/6 466/3/6 470/3/6
f 470/3/6 471/3/6 472/3/6
f 472/3/6 471/3/6 473/3/6
f 474/3/6 475/3/6 476/3/6
f 476/3/6 475/3/6 477/3/6
f 478/3/6 479/3/6 480/3/6
f 480/3/6 479/3/6 481/3/6
f 482/2/6 483/2/6 485/2/6
f 485/2/6 483/2/6 486/2/6
f 486/2/6 483/2/6 487/2/6
f 484/2/6 485/2/6 489/2/6
f 485/2/6 486/2/6 489/2/6
f 489/2/6 486/2/6 490/2/6
f 490/2/6 486/2/6 491/2/6
f 488/2/6 489/2/6 492/2/6
f 489/2/6 490/2/6 492/2/6
f 492/2/6 490/2/6 493/2/6
f 496/2/6 497/2/6 498/2/6
f 498/2/6 497/2/6 499/2/6
f 494/2/6 495/2/6 500/2/6
f 500/2/6 495/2/6 501/2/6
f 502/2/6 503/2/6 505/2/6
f 505/2/6 503/2/6 506/2/6
f 504/2/6 505/2/6 507/2/6
f 507/2/6 505/2/6 508/2/6
f 509/2/6 510/2/6 511/2/6
f 511/2/6 510/2/6 512/2/6
f 512/2/6 513/2/6 516/2/6
f 516/2/6 513/2/6 517/2/6
f 514/2/6 515/2/6 518/2/6
f 518/2/6 515/2/6 519/2/6
f 520/5/6 521/5/6 523/5/6
f 523/5/6 521/5/6 524/5/6
f 522/5/6 523/5/6 527/5/6
f 524/5/6 525/5/6 527/5/6
f 523/5/6 524/5/6 527/5/6
f 527/5/6 525/5/6 528/5/6
f 526/5/6 527/5/6 531/5/6
f 528/5/6 529/5/6 531/5/6
f 527/5/6 528/5/6 531/5/6
f 530/5/6 531/5/6 532/5/6
f 531/5/6 529/5/6 533/5/6
f 532/5/6 531/5/6 533/5/6
f 533/5/6 529/5/6 534/5/6
f 534/5/6 529/5/6 535/5/6
f 535/5/6 529/5/6 536/5/6
f 536/5/6 529/5/6 537/5/6
f 535/5/6 536/5/6 538/5/6
f 538/5/6 536/5/6 539/5/6
f 539/5/6 536/5/6 540/5/6
f 540/5/6 536/5/6 541/5/6
f 539/5/6 540/5/6 542/5/6
f 542/5/6 540/5/6 543/5/6
f 543/5/6 540/5/6 544/5/6
f 544/5/6 540/5/6 545/5/6
f 545/5/6 540/5/6 546/5/6
f 546/5/6 540/5/6 547/5/6
f 545/5/6 546/5/6 548/5/6
f 548/5/6 546/5/6 549/5/6
f 549/5/6 546/5/6 550/5/6
f 550/5/6 546/5/6 551/5/6
f 549/5/6 550/5/6 552/5/6
f 552/5/6 550/5/6 553/5/6
