# MagicaVoxel @ Ephtracy

# group
o 

# material
mtllib Tr0รง0.mtl
usemtl palette

# normals
vn -1 0 0
vn 1 0 0
vn 0 0 1
vn 0 0 -1
vn 0 -1 0
vn 0 1 0

# texcoords
vt 0.0605469 0.5
vt 0.236328 0.5
vt 0.240234 0.5
vt 0.248047 0.5
vt 0.333984 0.5
vt 0.705078 0.5
vt 0.716797 0.5
vt 0.744141 0.5
vt 0.748047 0.5
vt 0.861328 0.5
vt 0.869141 0.5

# verts
v -0.4 -0.35 0.3
v -0.4 -0.35 -0.4
v -0.4 -0.25 0.3
v -0.4 -0.25 -0.4
v -0.4 -0.15 0.3
v -0.4 -0.15 0.1
v -0.4 -0.15 -0.1
v -0.4 -0.15 -0.4
v -0.4 -0.05 0.3
v -0.4 -0.05 0.2
v -0.4 0.05 0.4
v -0.4 0.05 0.3
v -0.4 0.05 0.2
v -0.4 0.05 0.1
v -0.4 0.05 -0.1
v -0.4 0.05 -0.2
v -0.4 0.15 0.4
v -0.4 0.15 0.3
v -0.4 0.15 -0.2
v -0.4 0.15 -0.4
v -0.4 0.25 0.4
v -0.4 0.25 0.3
v -0.4 0.25 -0.2
v -0.4 0.25 -0.4
v -0.4 0.35 0.4
v -0.4 0.35 -0.4
v 0.4 -0.35 0.3
v 0.4 -0.35 -0.4
v 0.4 -0.25 0.3
v 0.4 -0.25 -0.4
v 0.4 -0.15 0.3
v 0.4 -0.15 0.1
v 0.4 -0.15 -0.1
v 0.4 -0.15 -0.4
v 0.4 -0.05 0.3
v 0.4 -0.05 0.2
v 0.4 0.05 0.4
v 0.4 0.05 0.3
v 0.4 0.05 0.2
v 0.4 0.05 0.1
v 0.4 0.05 -0.1
v 0.4 0.05 -0.2
v 0.4 0.25 0.4
v 0.4 0.25 0.3
v 0.4 0.25 -0.2
v 0.4 0.25 -0.4
v 0.4 0.35 0.4
v 0.4 0.35 -0.4
v -0.4 0.05 0.4
v -0.4 0.15 0.4
v -0.4 0.25 0.4
v -0.4 0.35 0.4
v -0.3 0.15 0.4
v -0.3 0.25 0.4
v -0.3 0.35 0.4
v -0.2 0.05 0.4
v -0.2 0.15 0.4
v -0.2 0.25 0.4
v -0.1 0.15 0.4
v -0.1 0.25 0.4
v -0.1 0.35 0.4
v 0.1 0.15 0.4
v 0.1 0.25 0.4
v 0.1 0.35 0.4
v 0.2 0.05 0.4
v 0.2 0.15 0.4
v 0.2 0.25 0.4
v 0.3 0.15 0.4
v 0.3 0.25 0.4
v 0.3 0.35 0.4
v 0.4 0.05 0.4
v 0.4 0.25 0.4
v 0.4 0.35 0.4
v -0.4 -0.35 0.3
v -0.4 -0.25 0.3
v -0.4 -0.15 0.3
v -0.4 -0.05 0.3
v -0.4 0.05 0.3
v -0.3 -0.25 0.3
v -0.3 -0.15 0.3
v -0.3 -0.05 0.3
v -0.2 0.05 0.3
v -0.1 -0.15 0.3
v -0.1 -0.05 0.3
v 0.1 -0.15 0.3
v 0.1 -0.05 0.3
v 0.2 0.05 0.3
v 0.3 -0.25 0.3
v 0.3 -0.15 0.3
v 0.3 -0.05 0.3
v 0.4 -0.35 0.3
v 0.4 -0.25 0.3
v 0.4 -0.15 0.3
v 0.4 -0.05 0.3
v 0.4 0.05 0.3
v -0.4 -0.35 -0.4
v -0.4 -0.25 -0.4
v -0.4 -0.15 -0.4
v -0.4 0.15 -0.4
v -0.4 0.25 -0.4
v -0.4 0.35 -0.4
v -0.3 -0.25 -0.4
v -0.3 -0.15 -0.4
v -0.3 0.15 -0.4
v -0.3 0.25 -0.4
v -0.2 0.05 -0.4
v -0.2 0.15 -0.4
v -0.1 -0.05 -0.4
v -0.1 0.05 -0.4
v 0.1 -0.05 -0.4
v 0.1 0.05 -0.4
v 0.2 0.05 -0.4
v 0.2 0.15 -0.4
v 0.3 -0.25 -0.4
v 0.3 -0.15 -0.4
v 0.3 0.15 -0.4
v 0.3 0.25 -0.4
v 0.4 -0.35 -0.4
v 0.4 -0.25 -0.4
v 0.4 -0.15 -0.4
v 0.4 0.25 -0.4
v 0.4 0.35 -0.4
v -0.4 -0.35 0.3
v 0.4 -0.35 0.3
v -0.4 -0.35 -0.4
v 0.4 -0.35 -0.4
v -0.4 0.05 0.4
v -0.2 0.05 0.4
v 0.2 0.05 0.4
v 0.4 0.05 0.4
v -0.4 0.05 0.3
v -0.2 0.05 0.3
v 0.2 0.05 0.3
v 0.4 0.05 0.3
v -0.4 0.35 0.4
v -0.3 0.35 0.4
v -0.1 0.35 0.4
v 0.1 0.35 0.4
v 0.3 0.35 0.4
v 0.4 0.35 0.4
v -0.1 0.35 0.3
v 0.1 0.35 0.3
v -0.3 0.35 -0.3
v 0.3 0.35 -0.3
v -0.4 0.35 -0.4
v 0.4 0.35 -0.4

# faces
f 3/11/1 2/11/1 1/11/1
f 4/11/1 2/11/1 3/11/1
f 5/10/1 4/10/1 3/10/1
f 6/10/1 4/10/1 5/10/1
f 7/10/1 4/10/1 6/10/1
f 8/10/1 4/10/1 7/10/1
f 9/7/1 6/7/1 5/7/1
f 10/7/1 6/7/1 9/7/1
f 12/8/1 10/8/1 9/8/1
f 13/7/1 6/7/1 10/7/1
f 13/8/1 10/8/1 12/8/1
f 14/8/1 7/8/1 6/8/1
f 14/7/1 6/7/1 13/7/1
f 15/7/1 8/7/1 7/7/1
f 15/8/1 7/8/1 14/8/1
f 16/7/1 8/7/1 15/7/1
f 17/7/1 12/7/1 11/7/1
f 18/8/1 13/8/1 12/8/1
f 18/7/1 12/7/1 17/7/1
f 18/8/1 14/8/1 13/8/1
f 18/8/1 16/8/1 15/8/1
f 18/8/1 15/8/1 14/8/1
f 19/7/1 8/7/1 16/7/1
f 19/8/1 16/8/1 18/8/1
f 20/7/1 8/7/1 19/7/1
f 21/6/1 18/6/1 17/6/1
f 22/8/1 19/8/1 18/8/1
f 22/6/1 18/6/1 21/6/1
f 23/6/1 20/6/1 19/6/1
f 23/8/1 19/8/1 22/8/1
f 24/6/1 20/6/1 23/6/1
f 25/8/1 22/8/1 21/8/1
f 25/8/1 23/8/1 22/8/1
f 25/8/1 24/8/1 23/8/1
f 26/8/1 24/8/1 25/8/1
f 27/11/2 28/11/2 29/11/2
f 29/11/2 28/11/2 30/11/2
f 29/10/2 30/10/2 31/10/2
f 31/10/2 30/10/2 32/10/2
f 32/10/2 30/10/2 33/10/2
f 33/10/2 30/10/2 34/10/2
f 31/7/2 32/7/2 35/7/2
f 35/7/2 32/7/2 36/7/2
f 35/8/2 36/8/2 38/8/2
f 36/7/2 32/7/2 39/7/2
f 38/8/2 36/8/2 39/8/2
f 32/8/2 33/8/2 40/8/2
f 39/7/2 32/7/2 40/7/2
f 33/7/2 34/7/2 41/7/2
f 40/8/2 33/8/2 41/8/2
f 41/7/2 34/7/2 42/7/2
f 37/7/2 38/7/2 43/7/2
f 38/8/2 39/8/2 44/8/2
f 43/7/2 38/7/2 44/7/2
f 39/8/2 40/8/2 44/8/2
f 41/8/2 42/8/2 44/8/2
f 40/8/2 41/8/2 44/8/2
f 42/7/2 34/7/2 45/7/2
f 44/8/2 42/8/2 45/8/2
f 45/7/2 34/7/2 46/7/2
f 43/8/2 44/8/2 47/8/2
f 44/8/2 45/8/2 47/8/2
f 45/8/2 46/8/2 47/8/2
f 47/8/2 46/8/2 48/8/2
f 53/7/3 50/7/3 49/7/3
f 53/6/3 51/6/3 50/6/3
f 54/8/3 52/8/3 51/8/3
f 54/6/3 51/6/3 53/6/3
f 55/8/3 52/8/3 54/8/3
f 56/7/3 53/7/3 49/7/3
f 57/9/3 54/9/3 53/9/3
f 57/7/3 53/7/3 56/7/3
f 58/3/3 55/3/3 54/3/3
f 58/9/3 54/9/3 57/9/3
f 59/9/3 57/9/3 56/9/3
f 59/3/3 58/3/3 57/3/3
f 60/3/3 55/3/3 58/3/3
f 60/3/3 58/3/3 59/3/3
f 61/3/3 55/3/3 60/3/3
f 62/9/3 59/9/3 56/9/3
f 62/2/3 60/2/3 59/2/3
f 63/4/3 61/4/3 60/4/3
f 63/2/3 60/2/3 62/2/3
f 64/4/3 61/4/3 63/4/3
f 65/9/3 62/9/3 56/9/3
f 66/3/3 63/3/3 62/3/3
f 66/9/3 62/9/3 65/9/3
f 66/3/3 64/3/3 63/3/3
f 67/3/3 64/3/3 66/3/3
f 68/7/3 66/7/3 65/7/3
f 68/9/3 67/9/3 66/9/3
f 69/3/3 64/3/3 67/3/3
f 69/9/3 67/9/3 68/9/3
f 70/3/3 64/3/3 69/3/3
f 71/7/3 68/7/3 65/7/3
f 71/7/3 69/7/3 68/7/3
f 72/8/3 70/8/3 69/8/3
f 72/7/3 69/7/3 71/7/3
f 73/8/3 70/8/3 72/8/3
f 79/11/3 75/11/3 74/11/3
f 79/10/3 76/10/3 75/10/3
f 80/7/3 77/7/3 76/7/3
f 80/10/3 76/10/3 79/10/3
f 81/8/3 78/8/3 77/8/3
f 81/7/3 77/7/3 80/7/3
f 82/8/3 78/8/3 81/8/3
f 83/1/3 80/1/3 79/1/3
f 83/9/3 81/9/3 80/9/3
f 84/8/3 82/8/3 81/8/3
f 84/9/3 81/9/3 83/9/3
f 85/1/3 83/1/3 79/1/3
f 85/8/3 84/8/3 83/8/3
f 86/8/3 82/8/3 84/8/3
f 86/8/3 84/8/3 85/8/3
f 87/8/3 82/8/3 86/8/3
f 88/11/3 79/11/3 74/11/3
f 88/1/3 85/1/3 79/1/3
f 89/9/3 86/9/3 85/9/3
f 89/1/3 85/1/3 88/1/3
f 90/8/3 87/8/3 86/8/3
f 90/9/3 86/9/3 89/9/3
f 91/11/3 88/11/3 74/11/3
f 92/10/3 89/10/3 88/10/3
f 92/11/3 88/11/3 91/11/3
f 93/7/3 90/7/3 89/7/3
f 93/10/3 89/10/3 92/10/3
f 94/8/3 87/8/3 90/8/3
f 94/7/3 90/7/3 93/7/3
f 95/8/3 87/8/3 94/8/3
f 96/11/4 97/11/4 102/11/4
f 97/10/4 98/10/4 102/10/4
f 98/7/4 99/7/4 103/7/4
f 102/10/4 98/10/4 103/10/4
f 99/6/4 100/6/4 104/6/4
f 103/7/4 99/7/4 104/7/4
f 100/8/4 101/8/4 105/8/4
f 104/6/4 100/6/4 105/6/4
f 103/7/4 104/7/4 106/7/4
f 104/8/4 105/8/4 107/8/4
f 106/7/4 104/7/4 107/7/4
f 103/7/4 106/7/4 108/7/4
f 106/8/4 107/8/4 109/8/4
f 108/7/4 106/7/4 109/7/4
f 103/7/4 108/7/4 110/7/4
f 108/8/4 109/8/4 110/8/4
f 109/8/4 107/8/4 111/8/4
f 110/8/4 109/8/4 111/8/4
f 110/7/4 111/7/4 112/7/4
f 111/8/4 107/8/4 112/8/4
f 107/8/4 105/8/4 113/8/4
f 112/8/4 107/8/4 113/8/4
f 102/1/4 103/1/4 114/1/4
f 96/11/4 102/11/4 114/11/4
f 112/7/4 113/7/4 115/7/4
f 114/1/4 103/1/4 115/1/4
f 110/7/4 112/7/4 115/7/4
f 103/7/4 110/7/4 115/7/4
f 113/8/4 105/8/4 116/8/4
f 115/7/4 113/7/4 116/7/4
f 105/8/4 101/8/4 117/8/4
f 116/8/4 105/8/4 117/8/4
f 96/11/4 114/11/4 118/11/4
f 114/10/4 115/10/4 119/10/4
f 118/11/4 114/11/4 119/11/4
f 115/7/4 116/7/4 120/7/4
f 119/10/4 115/10/4 120/10/4
f 116/7/4 117/7/4 120/7/4
f 117/8/4 101/8/4 121/8/4
f 120/7/4 117/7/4 121/7/4
f 121/8/4 101/8/4 122/8/4
f 125/11/5 124/11/5 123/11/5
f 126/11/5 124/11/5 125/11/5
f 131/7/5 128/7/5 127/7/5
f 132/9/5 129/9/5 128/9/5
f 132/7/5 128/7/5 131/7/5
f 133/7/5 130/7/5 129/7/5
f 133/9/5 129/9/5 132/9/5
f 134/7/5 130/7/5 133/7/5
f 136/3/6 137/3/6 141/3/6
f 137/4/6 138/4/6 141/4/6
f 138/3/6 139/3/6 142/3/6
f 141/4/6 138/4/6 142/4/6
f 135/8/6 136/8/6 143/8/6
f 136/3/6 141/3/6 143/3/6
f 141/3/6 142/3/6 143/3/6
f 142/3/6 139/3/6 144/3/6
f 143/3/6 142/3/6 144/3/6
f 139/8/6 140/8/6 144/8/6
f 135/8/6 143/8/6 145/8/6
f 143/8/6 144/8/6 145/8/6
f 144/8/6 140/8/6 146/8/6
f 145/8/6 144/8/6 146/8/6
