# MagicaVoxel @ Ephtracy

# group
o 

# material
mtllib LavaJones_Arm.mtl
usemtl palette

# normals
vn -1 0 0
vn 1 0 0
vn 0 0 1
vn 0 0 -1
vn 0 -1 0
vn 0 1 0

# texcoords
vt 0.236328 0.5
vt 0.240234 0.5
vt 0.248047 0.5
vt 0.318359 0.5
vt 0.322266 0.5
vt 0.353516 0.5
vt 0.357422 0.5

# verts
v -0.15 -0.25 0.2
v -0.15 -0.25 -0.2
v -0.15 -0.15 0.2
v -0.15 -0.15 0
v -0.15 -0.15 -0.2
v -0.15 -0.05 0.2
v -0.15 -0.05 0.1
v -0.15 -0.05 0
v -0.15 -0.05 -0.2
v -0.15 0.05 0.2
v -0.15 0.05 0.1
v -0.15 0.15 0.2
v -0.15 0.15 -0.2
v -0.15 0.25 0.2
v -0.15 0.25 -0.2
v 0.15 -0.25 0.2
v 0.15 -0.25 -0.2
v 0.15 -0.15 0.2
v 0.15 -0.15 0
v 0.15 -0.15 -0.2
v 0.15 -0.05 0.2
v 0.15 -0.05 0
v 0.15 -0.05 -0.1
v 0.15 -0.05 -0.2
v 0.15 0.05 0.1
v 0.15 0.05 -0.1
v 0.15 0.15 0.2
v 0.15 0.15 0.1
v 0.15 0.15 -0.2
v 0.15 0.25 0.2
v 0.15 0.25 -0.2
v -0.15 -0.25 0.2
v -0.15 -0.15 0.2
v -0.15 -0.05 0.2
v -0.15 0.05 0.2
v -0.15 0.15 0.2
v -0.15 0.25 0.2
v -0.05 -0.15 0.2
v -0.05 -0.05 0.2
v 0.05 0.05 0.2
v 0.05 0.15 0.2
v 0.15 -0.25 0.2
v 0.15 -0.15 0.2
v 0.15 -0.05 0.2
v 0.15 0.15 0.2
v 0.15 0.25 0.2
v -0.15 -0.25 -0.2
v -0.15 -0.15 -0.2
v -0.15 -0.05 -0.2
v -0.15 0.15 -0.2
v -0.15 0.25 -0.2
v 0.05 -0.15 -0.2
v 0.05 -0.05 -0.2
v 0.15 -0.25 -0.2
v 0.15 -0.15 -0.2
v 0.15 -0.05 -0.2
v 0.15 0.15 -0.2
v 0.15 0.25 -0.2
v -0.15 -0.25 0.2
v 0.15 -0.25 0.2
v -0.15 -0.25 -0.2
v 0.15 -0.25 -0.2
v -0.15 0.25 0.2
v 0.15 0.25 0.2
v -0.15 0.25 -0.2
v 0.15 0.25 -0.2

# faces
f 3/3/1 2/3/1 1/3/1
f 4/3/1 2/3/1 3/3/1
f 5/3/1 2/3/1 4/3/1
f 6/1/1 4/1/1 3/1/1
f 7/1/1 4/1/1 6/1/1
f 8/2/1 5/2/1 4/2/1
f 8/1/1 4/1/1 7/1/1
f 9/2/1 5/2/1 8/2/1
f 10/6/1 7/6/1 6/6/1
f 11/4/1 8/4/1 7/4/1
f 11/6/1 7/6/1 10/6/1
f 11/4/1 9/4/1 8/4/1
f 12/4/1 11/4/1 10/4/1
f 13/4/1 9/4/1 11/4/1
f 13/4/1 11/4/1 12/4/1
f 14/5/1 13/5/1 12/5/1
f 15/5/1 13/5/1 14/5/1
f 16/3/2 17/3/2 18/3/2
f 18/3/2 17/3/2 19/3/2
f 19/3/2 17/3/2 20/3/2
f 18/2/2 19/2/2 21/2/2
f 19/1/2 20/1/2 22/1/2
f 21/2/2 19/2/2 22/2/2
f 22/1/2 20/1/2 23/1/2
f 23/1/2 20/1/2 24/1/2
f 21/6/2 22/6/2 25/6/2
f 22/6/2 23/6/2 25/6/2
f 23/4/2 24/4/2 26/4/2
f 25/6/2 23/6/2 26/6/2
f 21/6/2 25/6/2 27/6/2
f 25/4/2 26/4/2 28/4/2
f 27/6/2 25/6/2 28/6/2
f 26/4/2 24/4/2 29/4/2
f 28/4/2 26/4/2 29/4/2
f 27/5/2 28/5/2 30/5/2
f 28/5/2 29/5/2 30/5/2
f 30/5/2 29/5/2 31/5/2
f 38/3/3 33/3/3 32/3/3
f 38/1/3 34/1/3 33/1/3
f 39/6/3 35/6/3 34/6/3
f 39/1/3 34/1/3 38/1/3
f 40/4/3 36/4/3 35/4/3
f 40/6/3 35/6/3 39/6/3
f 41/5/3 37/5/3 36/5/3
f 41/4/3 36/4/3 40/4/3
f 42/3/3 38/3/3 32/3/3
f 43/2/3 39/2/3 38/2/3
f 43/3/3 38/3/3 42/3/3
f 44/6/3 40/6/3 39/6/3
f 44/2/3 39/2/3 43/2/3
f 44/6/3 41/6/3 40/6/3
f 45/5/3 37/5/3 41/5/3
f 45/6/3 41/6/3 44/6/3
f 46/5/3 37/5/3 45/5/3
f 47/3/4 48/3/4 52/3/4
f 48/2/4 49/2/4 52/2/4
f 49/4/4 50/4/4 53/4/4
f 52/2/4 49/2/4 53/2/4
f 47/3/4 52/3/4 54/3/4
f 52/1/4 53/1/4 55/1/4
f 54/3/4 52/3/4 55/3/4
f 53/4/4 50/4/4 56/4/4
f 55/1/4 53/1/4 56/1/4
f 50/5/4 51/5/4 57/5/4
f 56/4/4 50/4/4 57/4/4
f 57/5/4 51/5/4 58/5/4
f 61/3/5 60/3/5 59/3/5
f 62/3/5 60/3/5 61/3/5
f 63/5/6 64/5/6 65/5/6
f 65/5/6 64/5/6 66/5/6
