# MagicaVoxel @ Ephtracy

# group
o 

# material
mtllib LavaJones_Leg.mtl
usemtl palette

# normals
vn -1 0 0
vn 1 0 0
vn 0 0 1
vn 0 0 -1
vn 0 -1 0
vn 0 1 0

# texcoords
vt 0.279297 0.5
vt 0.318359 0.5
vt 0.322266 0.5
vt 0.353516 0.5
vt 0.970703 0.5
vt 0.978516 0.5
vt 0.982422 0.5
vt 0.986328 0.5

# verts
v -0.15 -0.25 0.3
v -0.15 -0.25 0.2
v -0.15 -0.25 -0.2
v -0.15 -0.25 -0.3
v -0.15 -0.15 0.3
v -0.15 -0.15 0.2
v -0.15 -0.15 -0.2
v -0.15 -0.15 -0.3
v -0.15 -0.05 0.3
v -0.15 -0.05 0.2
v -0.15 -0.05 0.1
v -0.15 -0.05 -0.3
v -0.15 0.05 0
v -0.15 0.05 -0.2
v -0.15 0.05 -0.3
v -0.15 0.15 0.1
v -0.15 0.15 0
v -0.15 0.15 -0.2
v -0.15 0.15 -0.3
v -0.15 0.25 0.1
v -0.15 0.25 -0.3
v 0.15 -0.25 0.3
v 0.15 -0.25 0.2
v 0.15 -0.25 -0.2
v 0.15 -0.25 -0.3
v 0.15 -0.15 0.3
v 0.15 -0.15 0.2
v 0.15 -0.15 -0.2
v 0.15 -0.15 -0.3
v 0.15 -0.05 0.3
v 0.15 -0.05 0.2
v 0.15 -0.05 0.1
v 0.15 -0.05 -0.2
v 0.15 -0.05 -0.3
v 0.15 0.05 0.1
v 0.15 0.05 0
v 0.15 0.05 -0.2
v 0.15 0.15 0.1
v 0.15 0.15 0
v 0.15 0.15 -0.2
v 0.15 0.15 -0.3
v 0.15 0.25 0.1
v 0.15 0.25 -0.3
v -0.15 -0.25 0.3
v -0.15 -0.15 0.3
v -0.15 -0.05 0.3
v 0.15 -0.25 0.3
v 0.15 -0.15 0.3
v 0.15 -0.05 0.3
v -0.15 -0.05 0.1
v -0.15 0.15 0.1
v -0.15 0.25 0.1
v -0.05 -0.05 0.1
v -0.05 0.05 0.1
v -0.05 0.15 0.1
v 0.05 -0.05 0.1
v 0.15 -0.05 0.1
v 0.15 0.05 0.1
v 0.15 0.15 0.1
v 0.15 0.25 0.1
v -0.15 -0.25 -0.3
v -0.15 -0.15 -0.3
v -0.15 -0.05 -0.3
v -0.15 0.05 -0.3
v -0.15 0.15 -0.3
v -0.15 0.25 -0.3
v 0.05 -0.05 -0.3
v 0.05 0.05 -0.3
v 0.05 0.15 -0.3
v 0.15 -0.25 -0.3
v 0.15 -0.15 -0.3
v 0.15 -0.05 -0.3
v 0.15 0.15 -0.3
v 0.15 0.25 -0.3
v -0.15 -0.25 0.3
v 0.15 -0.25 0.3
v -0.15 -0.25 0.2
v 0.15 -0.25 0.2
v -0.15 -0.25 -0.2
v 0.15 -0.25 -0.2
v -0.15 -0.25 -0.3
v 0.15 -0.25 -0.3
v -0.15 -0.05 0.3
v 0.15 -0.05 0.3
v -0.15 -0.05 0.2
v -0.05 -0.05 0.2
v 0.05 -0.05 0.2
v 0.15 -0.05 0.2
v -0.15 -0.05 0.1
v -0.05 -0.05 0.1
v 0.05 -0.05 0.1
v 0.15 -0.05 0.1
v -0.15 0.25 0.1
v 0.15 0.25 0.1
v -0.15 0.25 -0.3
v 0.15 0.25 -0.3

# faces
f 5/7/1 2/7/1 1/7/1
f 6/8/1 3/8/1 2/8/1
f 6/7/1 2/7/1 5/7/1
f 7/7/1 4/7/1 3/7/1
f 7/8/1 3/8/1 6/8/1
f 8/7/1 4/7/1 7/7/1
f 9/5/1 6/5/1 5/5/1
f 10/6/1 7/6/1 6/6/1
f 10/5/1 6/5/1 9/5/1
f 10/6/1 8/6/1 7/6/1
f 11/6/1 8/6/1 10/6/1
f 12/6/1 8/6/1 11/6/1
f 13/4/1 12/4/1 11/4/1
f 14/4/1 12/4/1 13/4/1
f 15/4/1 12/4/1 14/4/1
f 16/4/1 13/4/1 11/4/1
f 17/1/1 14/1/1 13/1/1
f 17/4/1 13/4/1 16/4/1
f 18/2/1 15/2/1 14/2/1
f 18/1/1 14/1/1 17/1/1
f 19/2/1 15/2/1 18/2/1
f 20/3/1 17/3/1 16/3/1
f 20/3/1 18/3/1 17/3/1
f 20/3/1 19/3/1 18/3/1
f 21/3/1 19/3/1 20/3/1
f 22/7/2 23/7/2 26/7/2
f 23/8/2 24/8/2 27/8/2
f 26/7/2 23/7/2 27/7/2
f 24/7/2 25/7/2 28/7/2
f 27/8/2 24/8/2 28/8/2
f 28/7/2 25/7/2 29/7/2
f 26/5/2 27/5/2 30/5/2
f 27/6/2 28/6/2 31/6/2
f 30/5/2 27/5/2 31/5/2
f 28/6/2 29/6/2 31/6/2
f 31/6/2 29/6/2 32/6/2
f 32/6/2 29/6/2 33/6/2
f 33/6/2 29/6/2 34/6/2
f 32/4/2 33/4/2 35/4/2
f 35/4/2 33/4/2 36/4/2
f 33/1/2 34/1/2 37/1/2
f 36/4/2 33/4/2 37/4/2
f 35/1/2 36/1/2 38/1/2
f 36/2/2 37/2/2 39/2/2
f 38/1/2 36/1/2 39/1/2
f 37/1/2 34/1/2 40/1/2
f 39/2/2 37/2/2 40/2/2
f 40/1/2 34/1/2 41/1/2
f 38/3/2 39/3/2 42/3/2
f 39/3/2 40/3/2 42/3/2
f 40/3/2 41/3/2 42/3/2
f 42/3/2 41/3/2 43/3/2
f 47/7/3 45/7/3 44/7/3
f 48/5/3 46/5/3 45/5/3
f 48/7/3 45/7/3 47/7/3
f 49/5/3 46/5/3 48/5/3
f 53/4/3 51/4/3 50/4/3
f 54/4/3 51/4/3 53/4/3
f 55/3/3 52/3/3 51/3/3
f 55/4/3 51/4/3 54/4/3
f 56/4/3 54/4/3 53/4/3
f 57/4/3 54/4/3 56/4/3
f 58/1/3 55/1/3 54/1/3
f 58/4/3 54/4/3 57/4/3
f 59/3/3 52/3/3 55/3/3
f 59/1/3 55/1/3 58/1/3
f 60/3/3 52/3/3 59/3/3
f 62/6/4 63/6/4 67/6/4
f 63/4/4 64/4/4 67/4/4
f 64/2/4 65/2/4 68/2/4
f 67/4/4 64/4/4 68/4/4
f 65/3/4 66/3/4 69/3/4
f 68/2/4 65/2/4 69/2/4
f 61/7/4 62/7/4 70/7/4
f 62/6/4 67/6/4 71/6/4
f 70/7/4 62/7/4 71/7/4
f 67/1/4 68/1/4 72/1/4
f 71/6/4 67/6/4 72/6/4
f 68/1/4 69/1/4 72/1/4
f 69/3/4 66/3/4 73/3/4
f 72/1/4 69/1/4 73/1/4
f 73/3/4 66/3/4 74/3/4
f 77/7/5 76/7/5 75/7/5
f 78/7/5 76/7/5 77/7/5
f 79/8/5 78/8/5 77/8/5
f 80/8/5 78/8/5 79/8/5
f 81/7/5 80/7/5 79/7/5
f 82/7/5 80/7/5 81/7/5
f 83/5/6 84/5/6 85/5/6
f 85/5/6 84/5/6 86/5/6
f 86/5/6 84/5/6 87/5/6
f 87/5/6 84/5/6 88/5/6
f 85/6/6 86/6/6 89/6/6
f 86/5/6 87/5/6 90/5/6
f 89/6/6 86/6/6 90/6/6
f 87/6/6 88/6/6 91/6/6
f 90/5/6 87/5/6 91/5/6
f 91/6/6 88/6/6 92/6/6
f 93/3/6 94/3/6 95/3/6
f 95/3/6 94/3/6 96/3/6
